<svg xmlns="http://www.w3.org/2000/svg" xmlns:xlink="http://www.w3.org/1999/xlink" width="48" zoomAndPan="magnify" viewBox="0 0 36 36.000001" height="48" preserveAspectRatio="xMidYMid meet" version="1.2"><defs><clipPath id="005d19fb75"><path d="M 3.246094 7.8125 L 32.433594 7.8125 L 32.433594 27.515625 L 3.246094 27.515625 Z M 3.246094 7.8125 "/></clipPath></defs><g id="f52cea111c"><g clip-rule="nonzero" clip-path="url(#005d19fb75)"><path style=" stroke:none;fill-rule:nonzero;fill:#000000;fill-opacity:1;" d="M 31.972656 12.53125 L 14.191406 12.53125 L 14.191406 8.316406 C 14.191406 8.128906 14.085938 7.960938 13.921875 7.886719 C 13.753906 7.8125 13.566406 7.84375 13.429688 7.96875 L 3.402344 17.332031 C 3.304688 17.421875 3.25 17.550781 3.25 17.679688 C 3.25 17.8125 3.308594 17.9375 3.402344 18.027344 L 13.429688 27.390625 C 13.515625 27.472656 13.625 27.515625 13.738281 27.515625 C 13.796875 27.515625 13.863281 27.503906 13.921875 27.476562 C 14.085938 27.402344 14.191406 27.234375 14.191406 27.046875 L 14.191406 22.828125 L 31.972656 22.828125 C 32.222656 22.828125 32.425781 22.617188 32.425781 22.359375 L 32.425781 13 C 32.425781 12.742188 32.222656 12.53125 31.972656 12.53125 Z M 31.515625 21.894531 L 13.738281 21.894531 C 13.484375 21.894531 13.28125 22.101562 13.28125 22.359375 L 13.28125 25.984375 L 4.382812 17.679688 L 13.28125 9.371094 L 13.28125 12.996094 C 13.28125 13.253906 13.484375 13.460938 13.738281 13.460938 L 31.515625 13.460938 Z M 31.515625 21.894531 "/></g></g></svg>