<svg xmlns="http://www.w3.org/2000/svg" xmlns:xlink="http://www.w3.org/1999/xlink" width="40" zoomAndPan="magnify" viewBox="0 0 30 30.000001" height="40" preserveAspectRatio="xMidYMid meet" version="1.2"><defs><clipPath id="dcaacdc073"><path d="M 1.320312 0.835938 L 28.898438 0.835938 L 28.898438 28.414062 L 1.320312 28.414062 Z M 1.320312 0.835938 "/></clipPath></defs><g id="a7225a2341"><g clip-rule="nonzero" clip-path="url(#dcaacdc073)"><path style=" stroke:none;fill-rule:nonzero;fill:#000000;fill-opacity:1;" d="M 15.109375 28.414062 C 14.9375 28.414062 14.789062 28.355469 14.664062 28.230469 L 12.140625 25.707031 L 8.6875 26.628906 C 8.523438 26.675781 8.363281 26.65625 8.214844 26.566406 C 8.0625 26.480469 7.964844 26.355469 7.921875 26.1875 L 6.996094 22.738281 L 3.546875 21.8125 C 3.378906 21.765625 3.253906 21.671875 3.167969 21.519531 C 3.078125 21.371094 3.058594 21.210938 3.105469 21.042969 L 4.027344 17.59375 L 1.503906 15.066406 C 1.378906 14.945312 1.320312 14.796875 1.320312 14.625 C 1.320312 14.453125 1.378906 14.304688 1.503906 14.183594 L 4.027344 11.65625 L 3.105469 8.207031 C 3.058594 8.039062 3.078125 7.878906 3.167969 7.730469 C 3.253906 7.578125 3.378906 7.484375 3.546875 7.4375 L 6.996094 6.511719 L 7.921875 3.0625 C 7.964844 2.894531 8.0625 2.769531 8.214844 2.683594 C 8.363281 2.59375 8.523438 2.574219 8.6875 2.621094 L 12.140625 3.542969 L 14.664062 1.019531 C 14.789062 0.894531 14.9375 0.835938 15.109375 0.835938 C 15.28125 0.835938 15.429688 0.894531 15.550781 1.019531 L 18.078125 3.542969 L 21.527344 2.621094 C 21.695312 2.574219 21.855469 2.59375 22.003906 2.683594 C 22.15625 2.769531 22.25 2.894531 22.296875 3.0625 L 23.222656 6.511719 L 26.671875 7.4375 C 26.839844 7.484375 26.964844 7.578125 27.050781 7.730469 C 27.136719 7.878906 27.160156 8.039062 27.113281 8.207031 L 26.191406 11.65625 L 28.714844 14.183594 C 28.839844 14.304688 28.898438 14.453125 28.898438 14.625 C 28.898438 14.796875 28.839844 14.945312 28.714844 15.066406 L 26.191406 17.59375 L 27.113281 21.042969 C 27.160156 21.210938 27.136719 21.371094 27.050781 21.519531 C 26.964844 21.671875 26.839844 21.765625 26.671875 21.8125 L 23.222656 22.738281 L 22.296875 26.1875 C 22.25 26.355469 22.152344 26.480469 22.003906 26.566406 C 21.855469 26.65625 21.695312 26.675781 21.527344 26.628906 L 18.078125 25.707031 L 15.550781 28.230469 C 15.429688 28.355469 15.28125 28.414062 15.109375 28.414062 Z M 12.328125 24.378906 C 12.5 24.378906 12.648438 24.441406 12.769531 24.5625 L 15.109375 26.902344 L 17.449219 24.5625 C 17.617188 24.394531 17.820312 24.339844 18.054688 24.402344 L 21.246094 25.257812 L 22.101562 22.0625 C 22.164062 21.828125 22.3125 21.683594 22.546875 21.621094 L 25.742188 20.761719 L 24.886719 17.570312 C 24.824219 17.335938 24.875 17.132812 25.046875 16.964844 L 27.386719 14.625 L 25.046875 12.285156 C 24.875 12.117188 24.824219 11.914062 24.886719 11.679688 L 25.742188 8.488281 L 22.546875 7.628906 C 22.3125 7.566406 22.164062 7.421875 22.101562 7.1875 L 21.246094 3.992188 L 18.054688 4.847656 C 17.820312 4.910156 17.617188 4.855469 17.449219 4.6875 L 15.109375 2.347656 L 12.769531 4.6875 C 12.601562 4.855469 12.398438 4.910156 12.164062 4.847656 L 8.96875 3.992188 L 8.113281 7.1875 C 8.050781 7.421875 7.902344 7.566406 7.671875 7.628906 L 4.476562 8.488281 L 5.332031 11.679688 C 5.394531 11.914062 5.339844 12.117188 5.171875 12.285156 L 2.832031 14.625 L 5.171875 16.964844 C 5.339844 17.132812 5.394531 17.335938 5.332031 17.570312 L 4.476562 20.761719 L 7.671875 21.621094 C 7.902344 21.683594 8.050781 21.828125 8.113281 22.0625 L 8.96875 25.257812 L 12.164062 24.402344 C 12.21875 24.386719 12.273438 24.378906 12.328125 24.378906 Z M 12.328125 24.378906 "/></g><path style=" stroke:none;fill-rule:nonzero;fill:#000000;fill-opacity:1;" d="M 11.976562 14 C 11.640625 14 11.324219 13.933594 11.015625 13.808594 C 10.707031 13.679688 10.4375 13.5 10.203125 13.265625 C 9.964844 13.027344 9.785156 12.757812 9.660156 12.449219 C 9.53125 12.144531 9.46875 11.824219 9.46875 11.492188 C 9.46875 11.160156 9.53125 10.839844 9.660156 10.53125 C 9.785156 10.222656 9.964844 9.953125 10.203125 9.71875 C 10.4375 9.484375 10.707031 9.300781 11.015625 9.175781 C 11.324219 9.046875 11.640625 8.984375 11.976562 8.984375 C 12.308594 8.984375 12.628906 9.046875 12.933594 9.175781 C 13.242188 9.300781 13.511719 9.484375 13.746094 9.71875 C 13.984375 9.953125 14.164062 10.222656 14.292969 10.53125 C 14.417969 10.839844 14.480469 11.160156 14.480469 11.492188 C 14.480469 11.824219 14.417969 12.144531 14.289062 12.449219 C 14.164062 12.757812 13.980469 13.027344 13.746094 13.261719 C 13.511719 13.496094 13.242188 13.679688 12.933594 13.804688 C 12.625 13.933594 12.308594 13.996094 11.976562 14 Z M 11.976562 10.238281 C 11.808594 10.238281 11.648438 10.269531 11.496094 10.332031 C 11.339844 10.394531 11.207031 10.488281 11.089844 10.605469 C 10.96875 10.722656 10.878906 10.859375 10.816406 11.011719 C 10.753906 11.164062 10.722656 11.324219 10.722656 11.492188 C 10.722656 11.65625 10.753906 11.816406 10.816406 11.96875 C 10.878906 12.125 10.96875 12.257812 11.089844 12.378906 C 11.207031 12.496094 11.339844 12.585938 11.496094 12.648438 C 11.648438 12.710938 11.808594 12.746094 11.976562 12.746094 C 12.140625 12.746094 12.300781 12.710938 12.453125 12.648438 C 12.609375 12.585938 12.742188 12.496094 12.859375 12.378906 C 12.980469 12.257812 13.070312 12.125 13.132812 11.96875 C 13.195312 11.816406 13.226562 11.65625 13.226562 11.492188 C 13.226562 11.324219 13.195312 11.164062 13.132812 11.011719 C 13.070312 10.859375 12.976562 10.722656 12.859375 10.605469 C 12.742188 10.488281 12.609375 10.398438 12.453125 10.332031 C 12.300781 10.269531 12.140625 10.238281 11.976562 10.238281 Z M 11.976562 10.238281 "/><path style=" stroke:none;fill-rule:nonzero;fill:#000000;fill-opacity:1;" d="M 18.242188 20.265625 C 17.910156 20.265625 17.589844 20.203125 17.285156 20.074219 C 16.976562 19.949219 16.707031 19.765625 16.46875 19.53125 C 16.234375 19.296875 16.054688 19.027344 15.925781 18.71875 C 15.800781 18.410156 15.734375 18.089844 15.734375 17.757812 C 15.734375 17.425781 15.800781 17.105469 15.925781 16.800781 C 16.054688 16.492188 16.234375 16.222656 16.46875 15.984375 C 16.707031 15.75 16.976562 15.570312 17.285156 15.441406 C 17.589844 15.316406 17.910156 15.25 18.242188 15.25 C 18.574219 15.25 18.894531 15.316406 19.203125 15.441406 C 19.507812 15.570312 19.78125 15.75 20.015625 15.984375 C 20.25 16.222656 20.433594 16.492188 20.558594 16.800781 C 20.6875 17.105469 20.75 17.425781 20.75 17.757812 C 20.75 18.089844 20.6875 18.410156 20.558594 18.71875 C 20.429688 19.023438 20.25 19.296875 20.015625 19.53125 C 19.78125 19.765625 19.507812 19.949219 19.203125 20.074219 C 18.894531 20.203125 18.574219 20.265625 18.242188 20.265625 Z M 18.242188 16.503906 C 18.078125 16.503906 17.917969 16.539062 17.761719 16.601562 C 17.609375 16.664062 17.472656 16.753906 17.355469 16.871094 C 17.238281 16.992188 17.148438 17.125 17.085938 17.28125 C 17.019531 17.433594 16.988281 17.59375 16.988281 17.757812 C 16.988281 17.925781 17.019531 18.085938 17.085938 18.238281 C 17.148438 18.390625 17.238281 18.527344 17.355469 18.644531 C 17.472656 18.761719 17.609375 18.855469 17.761719 18.917969 C 17.917969 18.980469 18.078125 19.011719 18.242188 19.011719 C 18.410156 19.011719 18.570312 18.980469 18.722656 18.917969 C 18.875 18.855469 19.011719 18.761719 19.128906 18.644531 C 19.246094 18.527344 19.335938 18.390625 19.402344 18.238281 C 19.464844 18.085938 19.496094 17.925781 19.496094 17.757812 C 19.496094 17.59375 19.464844 17.433594 19.402344 17.28125 C 19.335938 17.125 19.246094 16.992188 19.128906 16.875 C 19.011719 16.753906 18.875 16.664062 18.722656 16.601562 C 18.570312 16.539062 18.410156 16.503906 18.242188 16.503906 Z M 18.242188 16.503906 "/><path style=" stroke:none;fill-rule:nonzero;fill:#000000;fill-opacity:1;" d="M 11.347656 20.265625 C 11.089844 20.265625 10.902344 20.152344 10.785156 19.917969 C 10.671875 19.6875 10.691406 19.46875 10.847656 19.261719 L 18.367188 9.234375 C 18.472656 9.097656 18.609375 9.015625 18.78125 8.988281 C 18.953125 8.964844 19.105469 9.003906 19.246094 9.109375 C 19.382812 9.214844 19.464844 9.351562 19.488281 9.523438 C 19.515625 9.691406 19.476562 9.847656 19.371094 9.988281 L 11.847656 20.015625 C 11.722656 20.183594 11.554688 20.265625 11.347656 20.265625 Z M 11.347656 20.265625 "/></g></svg>