<svg xmlns="http://www.w3.org/2000/svg" xmlns:xlink="http://www.w3.org/1999/xlink" width="40" zoomAndPan="magnify" viewBox="0 0 30 30.000001" height="40" preserveAspectRatio="xMidYMid meet" version="1.2"><defs><clipPath id="2baae4366f"><path d="M 2.296875 1.816406 L 27.703125 1.816406 L 27.703125 27.21875 L 2.296875 27.21875 Z M 2.296875 1.816406 "/></clipPath></defs><g id="178d9b1912"><g clip-rule="nonzero" clip-path="url(#2baae4366f)"><path style=" stroke:none;fill-rule:nonzero;fill:#000000;fill-opacity:1;" d="M 15 27.21875 C 14.164062 27.21875 13.339844 27.136719 12.523438 26.972656 C 11.703125 26.8125 10.910156 26.570312 10.140625 26.25 C 9.367188 25.933594 8.636719 25.539062 7.945312 25.078125 C 7.25 24.613281 6.609375 24.085938 6.019531 23.496094 C 5.429688 22.90625 4.902344 22.265625 4.4375 21.574219 C 3.976562 20.878906 3.585938 20.148438 3.265625 19.375 C 2.945312 18.605469 2.707031 17.8125 2.542969 16.992188 C 2.378906 16.175781 2.296875 15.351562 2.296875 14.515625 C 2.296875 13.683594 2.378906 12.855469 2.542969 12.039062 C 2.707031 11.21875 2.945312 10.425781 3.265625 9.65625 C 3.585938 8.886719 3.976562 8.152344 4.4375 7.460938 C 4.902344 6.765625 5.429688 6.125 6.019531 5.535156 C 6.609375 4.945312 7.25 4.417969 7.945312 3.957031 C 8.636719 3.492188 9.367188 3.101562 10.140625 2.78125 C 10.910156 2.460938 11.703125 2.222656 12.523438 2.058594 C 13.339844 1.894531 14.164062 1.816406 15 1.816406 C 15.835938 1.816406 16.660156 1.894531 17.476562 2.058594 C 18.296875 2.222656 19.089844 2.460938 19.859375 2.78125 C 20.632812 3.101562 21.363281 3.492188 22.054688 3.957031 C 22.75 4.417969 23.390625 4.945312 23.980469 5.535156 C 24.570312 6.125 25.097656 6.765625 25.5625 7.460938 C 26.023438 8.152344 26.414062 8.886719 26.734375 9.65625 C 27.054688 10.425781 27.292969 11.21875 27.457031 12.039062 C 27.621094 12.855469 27.703125 13.683594 27.703125 14.515625 C 27.699219 15.351562 27.617188 16.175781 27.457031 16.992188 C 27.292969 17.8125 27.050781 18.605469 26.730469 19.375 C 26.410156 20.144531 26.019531 20.875 25.558594 21.570312 C 25.09375 22.261719 24.566406 22.902344 23.976562 23.492188 C 23.386719 24.082031 22.746094 24.609375 22.054688 25.074219 C 21.359375 25.535156 20.628906 25.925781 19.859375 26.246094 C 19.089844 26.566406 18.292969 26.808594 17.476562 26.972656 C 16.660156 27.132812 15.832031 27.21875 15 27.21875 Z M 15 2.917969 C 14.238281 2.917969 13.484375 2.992188 12.738281 3.140625 C 11.992188 3.289062 11.265625 3.511719 10.5625 3.800781 C 9.859375 4.09375 9.191406 4.449219 8.558594 4.875 C 7.925781 5.296875 7.339844 5.777344 6.800781 6.316406 C 6.261719 6.855469 5.78125 7.441406 5.355469 8.074219 C 4.933594 8.707031 4.578125 9.375 4.285156 10.078125 C 3.996094 10.78125 3.773438 11.507812 3.625 12.253906 C 3.476562 13 3.402344 13.753906 3.402344 14.515625 C 3.402344 15.277344 3.476562 16.03125 3.625 16.777344 C 3.773438 17.527344 3.996094 18.25 4.285156 18.953125 C 4.578125 19.65625 4.933594 20.324219 5.355469 20.960938 C 5.78125 21.59375 6.261719 22.179688 6.800781 22.714844 C 7.339844 23.253906 7.925781 23.734375 8.558594 24.160156 C 9.191406 24.582031 9.859375 24.9375 10.5625 25.230469 C 11.265625 25.523438 11.992188 25.742188 12.738281 25.890625 C 13.484375 26.039062 14.238281 26.113281 15 26.113281 C 15.761719 26.113281 16.515625 26.039062 17.261719 25.890625 C 18.007812 25.742188 18.734375 25.523438 19.4375 25.230469 C 20.140625 24.9375 20.808594 24.582031 21.441406 24.160156 C 22.074219 23.734375 22.660156 23.253906 23.199219 22.714844 C 23.738281 22.179688 24.21875 21.59375 24.644531 20.960938 C 25.066406 20.324219 25.421875 19.65625 25.714844 18.953125 C 26.003906 18.25 26.226562 17.527344 26.375 16.777344 C 26.523438 16.03125 26.597656 15.277344 26.597656 14.515625 C 26.597656 13.753906 26.519531 13 26.371094 12.253906 C 26.222656 11.507812 26.003906 10.785156 25.710938 10.082031 C 25.417969 9.378906 25.0625 8.710938 24.636719 8.078125 C 24.214844 7.445312 23.734375 6.859375 23.195312 6.320312 C 22.660156 5.78125 22.074219 5.300781 21.441406 4.878906 C 20.808594 4.453125 20.140625 4.097656 19.4375 3.804688 C 18.734375 3.511719 18.007812 3.292969 17.261719 3.144531 C 16.515625 2.996094 15.761719 2.917969 15 2.917969 Z M 15 2.917969 "/></g><path style=" stroke:none;fill-rule:nonzero;fill:#000000;fill-opacity:1;" d="M 23.285156 11.75 L 23.285156 10.652344 C 23.285156 10.285156 23.210938 9.933594 23.074219 9.59375 C 22.933594 9.257812 22.734375 8.957031 22.472656 8.699219 C 22.214844 8.441406 21.917969 8.242188 21.578125 8.101562 C 21.242188 7.960938 20.886719 7.890625 20.523438 7.890625 L 9.476562 7.890625 C 9.113281 7.890625 8.757812 7.960938 8.421875 8.101562 C 8.082031 8.242188 7.785156 8.441406 7.527344 8.699219 C 7.265625 8.957031 7.066406 9.257812 6.925781 9.59375 C 6.789062 9.933594 6.714844 10.285156 6.714844 10.652344 L 6.714844 18.382812 C 6.714844 18.746094 6.789062 19.101562 6.925781 19.4375 C 7.066406 19.777344 7.265625 20.074219 7.527344 20.332031 C 7.785156 20.59375 8.082031 20.792969 8.421875 20.933594 C 8.757812 21.074219 9.113281 21.144531 9.476562 21.144531 L 20.523438 21.144531 C 20.886719 21.144531 21.242188 21.074219 21.578125 20.933594 C 21.917969 20.792969 22.214844 20.59375 22.472656 20.332031 C 22.734375 20.074219 22.933594 19.777344 23.074219 19.4375 C 23.210938 19.101562 23.285156 18.746094 23.285156 18.382812 Z M 9.476562 8.992188 L 20.523438 8.992188 C 20.742188 8.992188 20.953125 9.035156 21.15625 9.121094 C 21.359375 9.203125 21.539062 9.324219 21.695312 9.480469 C 21.847656 9.636719 21.96875 9.8125 22.050781 10.015625 C 22.136719 10.21875 22.179688 10.429688 22.179688 10.652344 L 22.179688 11.390625 L 15 14.46875 L 7.820312 11.390625 L 7.820312 10.652344 C 7.820312 10.429688 7.863281 10.21875 7.949219 10.015625 C 8.03125 9.8125 8.152344 9.636719 8.304688 9.480469 C 8.460938 9.324219 8.640625 9.203125 8.84375 9.121094 C 9.046875 9.035156 9.257812 8.992188 9.476562 8.992188 Z M 20.523438 20.039062 L 9.476562 20.039062 C 9.257812 20.039062 9.046875 19.996094 8.84375 19.910156 C 8.640625 19.828125 8.460938 19.707031 8.304688 19.554688 C 8.152344 19.398438 8.03125 19.21875 7.949219 19.015625 C 7.863281 18.8125 7.820312 18.601562 7.820312 18.382812 L 7.820312 12.59375 L 14.78125 15.578125 C 14.925781 15.640625 15.074219 15.640625 15.21875 15.578125 L 22.179688 12.59375 L 22.179688 18.382812 C 22.179688 18.601562 22.136719 18.8125 22.050781 19.015625 C 21.96875 19.21875 21.847656 19.398438 21.695312 19.554688 C 21.539062 19.707031 21.359375 19.828125 21.15625 19.910156 C 20.953125 19.996094 20.742188 20.039062 20.523438 20.039062 Z M 20.523438 20.039062 "/></g></svg>