<svg xmlns="http://www.w3.org/2000/svg" xmlns:xlink="http://www.w3.org/1999/xlink" width="48" zoomAndPan="magnify" viewBox="0 0 36 36.000001" height="48" preserveAspectRatio="xMidYMid meet" version="1.2"><defs><clipPath id="f3bad073a5"><path d="M 3.078125 15 L 32.996094 15 L 32.996094 20 L 3.078125 20 Z M 3.078125 15 "/></clipPath><clipPath id="f8049b41d7"><path d="M 3.078125 24 L 32.996094 24 L 32.996094 28.101562 L 3.078125 28.101562 Z M 3.078125 24 "/></clipPath><clipPath id="e6217c3120"><path d="M 3.078125 6.9375 L 32.996094 6.9375 L 32.996094 11 L 3.078125 11 Z M 3.078125 6.9375 "/></clipPath></defs><g id="d770369761"><g clip-rule="nonzero" clip-path="url(#f3bad073a5)"><path style=" stroke:none;fill-rule:nonzero;fill:#000000;fill-opacity:1;" d="M 31.128906 15.652344 L 4.949219 15.652344 C 3.917969 15.652344 3.078125 16.488281 3.078125 17.519531 C 3.078125 18.550781 3.917969 19.386719 4.949219 19.386719 L 31.128906 19.386719 C 32.160156 19.386719 32.996094 18.550781 32.996094 17.519531 C 32.996094 16.488281 32.160156 15.652344 31.128906 15.652344 Z M 31.128906 15.652344 "/></g><g clip-rule="nonzero" clip-path="url(#f8049b41d7)"><path style=" stroke:none;fill-rule:nonzero;fill:#000000;fill-opacity:1;" d="M 31.128906 24.363281 L 4.949219 24.363281 C 3.917969 24.363281 3.078125 25.199219 3.078125 26.230469 C 3.078125 27.261719 3.917969 28.097656 4.949219 28.097656 L 31.128906 28.097656 C 32.160156 28.097656 32.996094 27.261719 32.996094 26.230469 C 32.996094 25.199219 32.160156 24.363281 31.128906 24.363281 Z M 31.128906 24.363281 "/></g><g clip-rule="nonzero" clip-path="url(#e6217c3120)"><path style=" stroke:none;fill-rule:nonzero;fill:#000000;fill-opacity:1;" d="M 4.949219 10.671875 L 31.128906 10.671875 C 32.160156 10.671875 32.996094 9.839844 32.996094 8.808594 C 32.996094 7.777344 32.160156 6.941406 31.128906 6.941406 L 4.949219 6.941406 C 3.917969 6.941406 3.078125 7.777344 3.078125 8.808594 C 3.078125 9.839844 3.917969 10.671875 4.949219 10.671875 Z M 4.949219 10.671875 "/></g></g></svg>