<svg xmlns="http://www.w3.org/2000/svg" xmlns:xlink="http://www.w3.org/1999/xlink" width="48" zoomAndPan="magnify" viewBox="0 0 36 36.000001" height="48" preserveAspectRatio="xMidYMid meet" version="1.2"><defs><clipPath id="becd8c30f0"><path d="M 1.691406 1.203125 L 34.527344 1.203125 L 34.527344 34 L 1.691406 34 Z M 1.691406 1.203125 "/></clipPath></defs><g id="57e46da863"><g clip-rule="nonzero" clip-path="url(#becd8c30f0)"><path style=" stroke:none;fill-rule:nonzero;fill:#000000;fill-opacity:1;" d="M 21.15625 33.871094 L 14.933594 33.871094 C 14.722656 33.882812 14.515625 33.851562 14.316406 33.777344 C 14.117188 33.707031 13.941406 33.601562 13.785156 33.460938 C 13.628906 33.320312 13.503906 33.152344 13.414062 32.960938 C 13.320312 32.773438 13.269531 32.570312 13.257812 32.359375 L 12.695312 28.894531 C 11.988281 28.605469 11.328125 28.230469 10.710938 27.773438 L 7.238281 29.21875 C 6.859375 29.386719 6.472656 29.402344 6.085938 29.261719 C 5.671875 29.128906 5.363281 28.871094 5.160156 28.484375 L 2.074219 23.125 C 1.972656 22.953125 1.902344 22.769531 1.871094 22.574219 C 1.835938 22.378906 1.839844 22.179688 1.878906 21.984375 C 1.917969 21.789062 1.992188 21.605469 2.097656 21.4375 C 2.203125 21.269531 2.335938 21.125 2.496094 21.007812 L 5.296875 18.765625 C 5.246094 18.386719 5.226562 18.003906 5.234375 17.621094 C 5.242188 17.328125 5.273438 17.035156 5.328125 16.746094 L 5.363281 16.53125 L 2.445312 14.203125 C 2.34375 14.125 2.269531 14.027344 2.214844 13.910156 C 2.042969 13.652344 1.941406 13.367188 1.910156 13.058594 C 1.878906 12.75 1.925781 12.453125 2.042969 12.164062 L 5.179688 6.5625 C 5.21875 6.492188 5.265625 6.429688 5.320312 6.375 C 5.550781 6.070312 5.851562 5.875 6.21875 5.78125 C 6.589844 5.691406 6.945312 5.726562 7.292969 5.886719 L 10.710938 7.3125 C 11.253906 6.929688 11.824219 6.601562 12.34375 6.308594 L 12.664062 6.125 L 13.101562 2.773438 C 13.113281 2.679688 13.144531 2.589844 13.183594 2.503906 C 13.328125 2.183594 13.539062 1.921875 13.824219 1.722656 C 14.105469 1.519531 14.421875 1.402344 14.769531 1.375 L 20.992188 1.375 C 21.203125 1.363281 21.40625 1.394531 21.605469 1.464844 C 21.804688 1.539062 21.984375 1.644531 22.140625 1.785156 C 22.296875 1.925781 22.421875 2.09375 22.511719 2.285156 C 22.601562 2.472656 22.652344 2.675781 22.664062 2.886719 L 23.226562 6.351562 C 23.9375 6.640625 24.597656 7.015625 25.210938 7.472656 L 28.6875 6.027344 C 29.066406 5.859375 29.449219 5.84375 29.839844 5.984375 C 30.253906 6.117188 30.5625 6.375 30.761719 6.761719 L 33.84375 12.121094 C 33.945312 12.289062 34.015625 12.476562 34.046875 12.671875 C 34.082031 12.867188 34.078125 13.066406 34.039062 13.261719 C 34 13.457031 33.925781 13.640625 33.820312 13.808594 C 33.714844 13.976562 33.582031 14.121094 33.421875 14.238281 L 30.617188 16.480469 C 30.671875 16.859375 30.691406 17.242188 30.683594 17.621094 C 30.675781 17.917969 30.644531 18.210938 30.589844 18.5 C 30.578125 18.566406 30.566406 18.632812 30.554688 18.699219 L 33.628906 21.042969 C 33.785156 21.15625 33.914062 21.296875 34.019531 21.457031 C 34.125 21.621094 34.195312 21.800781 34.234375 21.988281 C 34.273438 22.179688 34.273438 22.371094 34.242188 22.5625 C 34.207031 22.753906 34.140625 22.929688 34.039062 23.097656 L 30.902344 28.53125 C 30.699219 28.894531 30.398438 29.136719 30.003906 29.261719 C 29.59375 29.402344 29.195312 29.382812 28.804688 29.195312 L 25.335938 27.75 L 25.050781 27.9375 C 24.527344 28.296875 23.980469 28.613281 23.40625 28.886719 L 22.820312 32.503906 C 22.804688 32.589844 22.777344 32.671875 22.738281 32.75 C 22.597656 33.066406 22.382812 33.328125 22.101562 33.527344 C 21.816406 33.726562 21.5 33.84375 21.15625 33.871094 Z M 14.945312 32.160156 L 21.140625 32.160156 C 21.105469 32.160156 21.121094 32.121094 21.152344 32.074219 L 21.78125 28.140625 C 21.839844 27.796875 22.03125 27.574219 22.359375 27.464844 C 22.980469 27.21875 23.5625 26.902344 24.109375 26.511719 C 24.34375 26.359375 24.574219 26.207031 24.808594 26.066406 C 25.058594 25.917969 25.3125 25.898438 25.578125 26.011719 L 29.511719 27.648438 L 32.511719 22.324219 L 29.152344 19.777344 C 28.925781 19.605469 28.8125 19.378906 28.8125 19.09375 C 28.820312 18.800781 28.851562 18.507812 28.90625 18.214844 C 28.945312 18.019531 28.96875 17.820312 28.976562 17.621094 C 29 17.214844 28.957031 16.816406 28.855469 16.421875 C 28.800781 16.253906 28.796875 16.082031 28.847656 15.910156 C 28.898438 15.738281 28.992188 15.597656 29.132812 15.484375 L 32.316406 12.9375 L 29.253906 7.570312 L 25.414062 9.242188 C 25.101562 9.371094 24.8125 9.332031 24.550781 9.121094 C 23.847656 8.53125 23.0625 8.085938 22.195312 7.789062 C 21.867188 7.679688 21.675781 7.453125 21.617188 7.113281 L 20.976562 3.085938 L 14.785156 3.085938 C 14.816406 3.085938 14.804688 3.121094 14.777344 3.164062 L 14.308594 6.753906 C 14.273438 7.027344 14.136719 7.234375 13.902344 7.378906 C 13.675781 7.511719 13.433594 7.648438 13.191406 7.785156 C 12.554688 8.128906 11.949219 8.515625 11.371094 8.949219 C 11.109375 9.15625 10.824219 9.199219 10.515625 9.070312 L 6.652344 7.472656 L 6.605469 7.511719 L 3.585938 12.917969 L 6.789062 15.484375 C 7.003906 15.65625 7.109375 15.878906 7.109375 16.152344 C 7.101562 16.445312 7.070312 16.738281 7.015625 17.03125 C 6.898438 17.632812 6.917969 18.234375 7.066406 18.832031 C 7.121094 19 7.125 19.171875 7.074219 19.34375 C 7.023438 19.515625 6.929688 19.65625 6.789062 19.769531 L 3.601562 22.316406 L 6.667969 27.675781 L 10.507812 26.003906 C 10.816406 25.878906 11.101562 25.921875 11.363281 26.125 C 12.066406 26.714844 12.855469 27.15625 13.722656 27.457031 C 14.050781 27.566406 14.242188 27.792969 14.296875 28.132812 Z M 32.601562 22.394531 C 32.636719 22.433594 32.679688 22.464844 32.726562 22.488281 Z M 32.601562 22.394531 "/></g><path style=" stroke:none;fill-rule:nonzero;fill:#000000;fill-opacity:1;" d="M 18.042969 25.394531 C 17.535156 25.394531 17.027344 25.34375 16.527344 25.242188 C 16.027344 25.144531 15.542969 24.996094 15.070312 24.800781 C 14.601562 24.605469 14.152344 24.367188 13.726562 24.082031 C 13.304688 23.800781 12.910156 23.476562 12.550781 23.117188 C 12.191406 22.757812 11.867188 22.363281 11.585938 21.941406 C 11.300781 21.515625 11.0625 21.066406 10.867188 20.597656 C 10.671875 20.125 10.523438 19.640625 10.425781 19.140625 C 10.324219 18.636719 10.273438 18.132812 10.273438 17.621094 C 10.273438 17.113281 10.324219 16.609375 10.425781 16.105469 C 10.523438 15.605469 10.671875 15.121094 10.867188 14.648438 C 11.0625 14.179688 11.300781 13.730469 11.585938 13.304688 C 11.867188 12.882812 12.191406 12.488281 12.550781 12.128906 C 12.910156 11.769531 13.304688 11.445312 13.726562 11.164062 C 14.152344 10.878906 14.601562 10.640625 15.070312 10.445312 C 15.542969 10.25 16.027344 10.101562 16.527344 10.003906 C 17.027344 9.902344 17.535156 9.851562 18.042969 9.851562 C 18.554688 9.851562 19.058594 9.902344 19.558594 10.003906 C 20.0625 10.101562 20.546875 10.25 21.019531 10.445312 C 21.488281 10.640625 21.9375 10.878906 22.359375 11.164062 C 22.785156 11.445312 23.179688 11.769531 23.539062 12.128906 C 23.898438 12.488281 24.222656 12.882812 24.503906 13.304688 C 24.789062 13.730469 25.027344 14.179688 25.222656 14.648438 C 25.417969 15.121094 25.566406 15.605469 25.664062 16.105469 C 25.765625 16.609375 25.8125 17.113281 25.8125 17.621094 C 25.8125 18.132812 25.761719 18.636719 25.664062 19.136719 C 25.5625 19.636719 25.417969 20.125 25.21875 20.59375 C 25.023438 21.066406 24.785156 21.515625 24.503906 21.9375 C 24.21875 22.363281 23.898438 22.753906 23.535156 23.113281 C 23.175781 23.476562 22.78125 23.796875 22.359375 24.082031 C 21.933594 24.363281 21.488281 24.605469 21.015625 24.800781 C 20.546875 24.996094 20.058594 25.140625 19.558594 25.242188 C 19.058594 25.34375 18.554688 25.390625 18.042969 25.394531 Z M 18.042969 11.5625 C 17.648438 11.5625 17.253906 11.601562 16.863281 11.679688 C 16.472656 11.757812 16.09375 11.871094 15.726562 12.023438 C 15.359375 12.175781 15.007812 12.363281 14.679688 12.585938 C 14.347656 12.804688 14.042969 13.058594 13.757812 13.339844 C 13.476562 13.621094 13.226562 13.925781 13.007812 14.257812 C 12.785156 14.585938 12.597656 14.9375 12.445312 15.304688 C 12.292969 15.671875 12.179688 16.050781 12.101562 16.441406 C 12.023438 16.832031 11.984375 17.226562 11.984375 17.621094 C 11.984375 18.019531 12.023438 18.414062 12.101562 18.804688 C 12.179688 19.195312 12.292969 19.574219 12.445312 19.941406 C 12.597656 20.308594 12.785156 20.660156 13.007812 20.988281 C 13.226562 21.320312 13.476562 21.625 13.757812 21.90625 C 14.042969 22.1875 14.347656 22.441406 14.679688 22.660156 C 15.007812 22.882812 15.359375 23.070312 15.726562 23.222656 C 16.09375 23.375 16.472656 23.488281 16.863281 23.566406 C 17.253906 23.644531 17.648438 23.683594 18.042969 23.683594 C 18.441406 23.683594 18.835938 23.644531 19.226562 23.566406 C 19.617188 23.488281 19.996094 23.375 20.363281 23.222656 C 20.730469 23.070312 21.082031 22.882812 21.410156 22.660156 C 21.742188 22.441406 22.046875 22.1875 22.328125 21.90625 C 22.609375 21.625 22.863281 21.320312 23.082031 20.988281 C 23.304688 20.660156 23.492188 20.308594 23.644531 19.941406 C 23.796875 19.574219 23.910156 19.195312 23.988281 18.804688 C 24.066406 18.414062 24.105469 18.019531 24.105469 17.621094 C 24.105469 17.226562 24.0625 16.832031 23.988281 16.441406 C 23.910156 16.050781 23.792969 15.671875 23.640625 15.304688 C 23.488281 14.9375 23.300781 14.589844 23.082031 14.257812 C 22.859375 13.925781 22.609375 13.621094 22.328125 13.339844 C 22.046875 13.058594 21.738281 12.808594 21.410156 12.585938 C 21.078125 12.367188 20.730469 12.179688 20.363281 12.027344 C 19.996094 11.875 19.617188 11.757812 19.226562 11.679688 C 18.835938 11.601562 18.441406 11.5625 18.042969 11.5625 Z M 18.042969 11.5625 "/></g></svg>