<svg xmlns="http://www.w3.org/2000/svg" xmlns:xlink="http://www.w3.org/1999/xlink" width="48" zoomAndPan="magnify" viewBox="0 0 36 36.000001" height="48" preserveAspectRatio="xMidYMid meet" version="1.2"><defs><clipPath id="303c192e04"><path d="M 2.195312 2.261719 L 33.574219 2.261719 L 33.574219 32.910156 L 2.195312 32.910156 Z M 2.195312 2.261719 "/></clipPath></defs><g id="4fd31cf830"><g clip-rule="nonzero" clip-path="url(#303c192e04)"><path style=" stroke:none;fill-rule:nonzero;fill:#000000;fill-opacity:1;" d="M 25.921875 32.585938 C 25.507812 32.585938 25.117188 32.488281 24.75 32.292969 L 18.054688 28.730469 C 17.941406 28.667969 17.828125 28.667969 17.714844 28.730469 L 11.019531 32.292969 C 10.597656 32.519531 10.144531 32.613281 9.667969 32.578125 C 9.191406 32.542969 8.757812 32.382812 8.371094 32.101562 C 7.984375 31.816406 7.703125 31.449219 7.523438 31 C 7.339844 30.550781 7.292969 30.089844 7.371094 29.613281 L 8.652344 22.0625 C 8.671875 21.9375 8.636719 21.828125 8.542969 21.738281 L 3.128906 16.390625 C 2.789062 16.050781 2.558594 15.648438 2.445312 15.175781 C 2.328125 14.707031 2.347656 14.242188 2.496094 13.78125 C 2.644531 13.320312 2.902344 12.933594 3.265625 12.621094 C 3.632812 12.308594 4.054688 12.121094 4.527344 12.050781 L 12.011719 10.953125 C 12.136719 10.933594 12.226562 10.867188 12.28125 10.75 L 15.628906 3.882812 C 15.839844 3.449219 16.148438 3.101562 16.554688 2.847656 C 16.960938 2.589844 17.402344 2.464844 17.882812 2.464844 C 18.359375 2.464844 18.800781 2.589844 19.207031 2.847656 C 19.613281 3.101562 19.921875 3.449219 20.132812 3.882812 L 23.480469 10.75 C 23.539062 10.863281 23.628906 10.929688 23.753906 10.949219 L 31.242188 12.050781 C 31.714844 12.121094 32.136719 12.308594 32.503906 12.621094 C 32.867188 12.933594 33.125 13.320312 33.273438 13.78125 C 33.421875 14.242188 33.441406 14.707031 33.324219 15.175781 C 33.210938 15.644531 32.984375 16.050781 32.640625 16.390625 L 27.222656 21.734375 C 27.128906 21.824219 27.09375 21.933594 27.113281 22.058594 L 28.390625 29.609375 C 28.421875 29.789062 28.433594 29.972656 28.425781 30.15625 C 28.417969 30.34375 28.386719 30.523438 28.339844 30.703125 C 28.292969 30.882812 28.226562 31.050781 28.140625 31.214844 C 28.054688 31.378906 27.957031 31.535156 27.835938 31.675781 C 27.71875 31.816406 27.589844 31.945312 27.445312 32.054688 C 27.296875 32.167969 27.144531 32.265625 26.976562 32.34375 C 26.8125 32.421875 26.640625 32.480469 26.460938 32.519531 C 26.285156 32.5625 26.101562 32.582031 25.921875 32.582031 Z M 17.882812 26.511719 C 18.296875 26.511719 18.6875 26.609375 19.054688 26.804688 L 25.75 30.367188 C 25.882812 30.445312 26.011719 30.433594 26.132812 30.339844 C 26.257812 30.25 26.308594 30.132812 26.277344 29.980469 L 25 22.429688 C 24.929688 22.019531 24.957031 21.613281 25.085938 21.214844 C 25.214844 20.816406 25.425781 20.472656 25.71875 20.179688 L 31.140625 14.835938 C 31.246094 14.726562 31.277344 14.601562 31.230469 14.457031 C 31.183594 14.3125 31.085938 14.230469 30.9375 14.207031 L 23.449219 13.105469 C 23.039062 13.046875 22.667969 12.894531 22.335938 12.648438 C 22 12.402344 21.742188 12.089844 21.558594 11.714844 L 18.207031 4.847656 C 18.140625 4.710938 18.03125 4.644531 17.882812 4.644531 C 17.730469 4.644531 17.621094 4.710938 17.554688 4.847656 L 14.210938 11.714844 C 14.027344 12.089844 13.769531 12.398438 13.433594 12.644531 C 13.101562 12.890625 12.726562 13.042969 12.316406 13.105469 L 4.832031 14.207031 C 4.683594 14.230469 4.585938 14.3125 4.539062 14.457031 C 4.492188 14.601562 4.523438 14.730469 4.628906 14.835938 L 10.046875 20.179688 C 10.34375 20.472656 10.554688 20.816406 10.683594 21.214844 C 10.8125 21.613281 10.839844 22.019531 10.769531 22.429688 L 9.492188 29.980469 C 9.464844 30.128906 9.511719 30.25 9.636719 30.339844 C 9.757812 30.429688 9.886719 30.4375 10.019531 30.367188 L 16.714844 26.804688 C 17.082031 26.609375 17.472656 26.511719 17.882812 26.511719 Z M 17.882812 26.511719 "/></g></g></svg>