<svg xmlns="http://www.w3.org/2000/svg" xmlns:xlink="http://www.w3.org/1999/xlink" width="48" zoomAndPan="magnify" viewBox="0 0 36 36.000001" height="48" preserveAspectRatio="xMidYMid meet" version="1.2"><defs><clipPath id="80a5beaa19"><path d="M 1.652344 1.167969 L 34.492188 1.167969 L 34.492188 34.003906 L 1.652344 34.003906 Z M 1.652344 1.167969 "/></clipPath></defs><g id="14a809923c"><path style=" stroke:none;fill-rule:nonzero;fill:#1d1d1b;fill-opacity:1;" d="M 18.074219 21.734375 C 21.640625 21.734375 24.53125 18.84375 24.53125 15.277344 C 24.53125 11.714844 21.640625 8.824219 18.074219 8.824219 C 14.511719 8.824219 11.621094 11.714844 11.621094 15.277344 C 11.621094 18.84375 14.511719 21.734375 18.074219 21.734375 "/><path style=" stroke:none;fill-rule:nonzero;fill:#1d1d1b;fill-opacity:1;" d="M 18.074219 32.882812 C 22.359375 32.882812 26.230469 31.121094 29.003906 28.285156 C 28.40625 25.433594 25.878906 23.292969 22.847656 23.292969 L 13.304688 23.292969 C 10.273438 23.292969 7.746094 25.433594 7.144531 28.285156 C 9.921875 31.121094 13.792969 32.882812 18.074219 32.882812 "/><g clip-rule="nonzero" clip-path="url(#80a5beaa19)"><path style=" stroke:none;fill-rule:nonzero;fill:#1d1d1b;fill-opacity:1;" d="M 18.074219 31.542969 C 10.367188 31.542969 4.121094 25.296875 4.121094 17.589844 C 4.121094 9.882812 10.367188 3.632812 18.074219 3.632812 C 25.78125 3.632812 32.03125 9.882812 32.03125 17.589844 C 32.03125 25.296875 25.78125 31.542969 18.074219 31.542969 Z M 18.074219 1.167969 C 9.007812 1.167969 1.652344 8.519531 1.652344 17.589844 C 1.652344 26.65625 9.007812 34.007812 18.074219 34.007812 C 27.144531 34.007812 34.496094 26.65625 34.496094 17.589844 C 34.496094 8.519531 27.144531 1.167969 18.074219 1.167969 "/></g></g></svg>