<svg xmlns="http://www.w3.org/2000/svg" xmlns:xlink="http://www.w3.org/1999/xlink" width="48" zoomAndPan="magnify" viewBox="0 0 36 36.000001" height="48" preserveAspectRatio="xMidYMid meet" version="1.2"><defs><clipPath id="3e5921164d"><path d="M 4 3.136719 L 32.449219 3.136719 L 32.449219 30 L 4 30 Z M 4 3.136719 "/></clipPath><clipPath id="0a298c57f7"><path d="M 4 8 L 32.449219 8 L 32.449219 10 L 4 10 Z M 4 8 "/></clipPath><clipPath id="903620c3c0"><path d="M 8 12 L 29 12 L 29 31.597656 L 8 31.597656 Z M 8 12 "/></clipPath></defs><g id="6eab08a6b8"><g clip-rule="nonzero" clip-path="url(#3e5921164d)"><path style=" stroke:none;fill-rule:evenodd;fill:#000000;fill-opacity:1;" d="M 30.414062 29.898438 L 27.796875 29.898438 C 27.679688 29.898438 27.582031 29.828125 27.515625 29.746094 C 27.464844 29.648438 27.445312 29.53125 27.496094 29.429688 C 27.832031 28.714844 27.796875 27.914062 27.414062 27.210938 L 25.5625 23.761719 C 25.496094 23.660156 25.511719 23.542969 25.5625 23.445312 C 25.628906 23.328125 25.730469 23.277344 25.847656 23.277344 L 27.648438 23.277344 C 28.628906 23.277344 29.429688 22.476562 29.429688 21.492188 L 29.429688 18.125 C 29.429688 17.140625 28.628906 16.34375 27.648438 16.34375 L 21.761719 16.34375 C 21.644531 16.34375 21.527344 16.277344 21.476562 16.175781 L 20.445312 14.242188 C 19.976562 13.40625 19.175781 12.90625 18.210938 12.90625 C 17.261719 12.90625 16.441406 13.40625 15.992188 14.242188 L 9.023438 27.210938 C 8.640625 27.894531 8.605469 28.679688 8.90625 29.378906 C 8.941406 29.429688 8.972656 29.496094 8.972656 29.5625 C 8.972656 29.746094 8.824219 29.898438 8.640625 29.898438 C 8.640625 29.898438 8.625 29.898438 8.625 29.898438 L 6.007812 29.898438 C 5.007812 29.898438 4.1875 29.078125 4.1875 28.0625 L 4.1875 4.957031 C 4.1875 3.953125 5.007812 3.136719 6.007812 3.136719 L 30.414062 3.136719 C 31.433594 3.136719 32.25 3.953125 32.25 4.957031 L 32.25 28.0625 C 32.25 29.078125 31.433594 29.898438 30.414062 29.898438 Z M 28.28125 29.230469 L 30.414062 29.230469 C 31.066406 29.230469 31.582031 28.714844 31.582031 28.0625 L 31.582031 4.957031 C 31.582031 4.320312 31.066406 3.804688 30.414062 3.804688 L 6.007812 3.804688 C 5.371094 3.804688 4.855469 4.320312 4.855469 4.957031 L 4.855469 28.0625 C 4.855469 28.714844 5.371094 29.230469 6.007812 29.230469 L 8.15625 29.230469 C 7.941406 28.445312 8.039062 27.628906 8.441406 26.894531 L 15.410156 13.925781 C 15.976562 12.875 17.027344 12.242188 18.210938 12.242188 C 19.410156 12.242188 20.460938 12.875 21.027344 13.925781 L 21.960938 15.675781 L 27.648438 15.675781 C 28.996094 15.675781 30.097656 16.777344 30.097656 18.125 L 30.097656 21.492188 C 30.097656 22.84375 28.996094 23.945312 27.648438 23.945312 L 26.414062 23.945312 L 27.996094 26.894531 C 28.398438 27.628906 28.496094 28.445312 28.28125 29.230469 Z M 28.28125 29.230469 "/></g><g clip-rule="nonzero" clip-path="url(#0a298c57f7)"><path style=" stroke:none;fill-rule:evenodd;fill:#000000;fill-opacity:1;" d="M 31.914062 9.125 L 4.523438 9.125 C 4.339844 9.125 4.1875 8.972656 4.1875 8.789062 C 4.1875 8.605469 4.339844 8.457031 4.523438 8.457031 L 31.914062 8.457031 C 32.097656 8.457031 32.25 8.605469 32.25 8.789062 C 32.25 8.972656 32.097656 9.125 31.914062 9.125 Z M 31.914062 9.125 "/></g><path style=" stroke:none;fill-rule:evenodd;fill:#000000;fill-opacity:1;" d="M 8.441406 7.257812 L 6.875 7.257812 C 6.691406 7.257812 6.539062 7.105469 6.539062 6.921875 L 6.539062 5.339844 C 6.539062 5.136719 6.691406 5.003906 6.875 5.003906 L 8.441406 5.003906 C 8.625 5.003906 8.773438 5.136719 8.773438 5.339844 L 8.773438 6.921875 C 8.773438 7.105469 8.625 7.257812 8.441406 7.257812 Z M 7.207031 6.589844 L 8.105469 6.589844 L 8.105469 5.671875 L 7.207031 5.671875 Z M 7.207031 6.589844 "/><path style=" stroke:none;fill-rule:evenodd;fill:#000000;fill-opacity:1;" d="M 29.5625 7.257812 L 27.996094 7.257812 C 27.8125 7.257812 27.664062 7.105469 27.664062 6.921875 L 27.664062 5.339844 C 27.664062 5.136719 27.8125 5.003906 27.996094 5.003906 L 29.5625 5.003906 C 29.746094 5.003906 29.898438 5.136719 29.898438 5.339844 L 29.898438 6.921875 C 29.898438 7.105469 29.746094 7.257812 29.5625 7.257812 Z M 28.332031 6.589844 L 29.230469 6.589844 L 29.230469 5.671875 L 28.332031 5.671875 Z M 28.332031 6.589844 "/><path style=" stroke:none;fill-rule:evenodd;fill:#000000;fill-opacity:1;" d="M 25.894531 7.257812 L 24.328125 7.257812 C 24.144531 7.257812 23.996094 7.105469 23.996094 6.921875 L 23.996094 5.339844 C 23.996094 5.136719 24.144531 5.003906 24.328125 5.003906 L 25.894531 5.003906 C 26.078125 5.003906 26.230469 5.136719 26.230469 5.339844 L 26.230469 6.921875 C 26.230469 7.105469 26.078125 7.257812 25.894531 7.257812 Z M 24.664062 6.589844 L 25.5625 6.589844 L 25.5625 5.671875 L 24.664062 5.671875 Z M 24.664062 6.589844 "/><path style=" stroke:none;fill-rule:evenodd;fill:#000000;fill-opacity:1;" d="M 12.09375 7.257812 L 10.523438 7.257812 C 10.339844 7.257812 10.191406 7.105469 10.191406 6.921875 L 10.191406 5.339844 C 10.191406 5.136719 10.339844 5.003906 10.523438 5.003906 L 12.09375 5.003906 C 12.273438 5.003906 12.425781 5.136719 12.425781 5.339844 L 12.425781 6.921875 C 12.425781 7.105469 12.273438 7.257812 12.09375 7.257812 Z M 10.859375 6.589844 L 11.757812 6.589844 L 11.757812 5.671875 L 10.859375 5.671875 Z M 10.859375 6.589844 "/><path style=" stroke:none;fill-rule:evenodd;fill:#000000;fill-opacity:1;" d="M 21.796875 7.257812 L 14.625 7.257812 C 14.441406 7.257812 14.292969 7.105469 14.292969 6.921875 L 14.292969 5.339844 C 14.292969 5.136719 14.441406 5.003906 14.625 5.003906 L 21.796875 5.003906 C 21.976562 5.003906 22.128906 5.136719 22.128906 5.339844 L 22.128906 6.921875 C 22.128906 7.105469 21.976562 7.257812 21.796875 7.257812 Z M 14.960938 6.589844 L 21.460938 6.589844 L 21.460938 5.671875 L 14.960938 5.671875 Z M 14.960938 6.589844 "/><g clip-rule="nonzero" clip-path="url(#903620c3c0)"><path style=" stroke:none;fill-rule:evenodd;fill:#000000;fill-opacity:1;" d="M 25.195312 31.597656 L 11.242188 31.597656 C 10.089844 31.597656 9.089844 31.03125 8.507812 30.03125 C 7.90625 29.046875 7.890625 27.894531 8.441406 26.894531 L 15.410156 13.925781 C 15.976562 12.875 17.027344 12.242188 18.210938 12.242188 C 19.410156 12.242188 20.460938 12.875 21.027344 13.925781 L 22.046875 15.808594 C 22.078125 15.875 22.113281 15.941406 22.113281 16.007812 C 22.113281 16.191406 21.960938 16.34375 21.777344 16.34375 C 21.777344 16.34375 21.777344 16.34375 21.761719 16.34375 L 20.109375 16.34375 C 19.128906 16.34375 18.328125 17.140625 18.328125 18.125 L 18.328125 21.492188 C 18.328125 22.476562 19.128906 23.277344 20.109375 23.277344 L 25.847656 23.277344 C 25.980469 23.277344 26.097656 23.34375 26.148438 23.445312 L 27.996094 26.894531 C 28.546875 27.894531 28.515625 29.046875 27.929688 30.03125 C 27.332031 31.03125 26.347656 31.597656 25.195312 31.597656 Z M 18.210938 12.90625 C 17.261719 12.90625 16.441406 13.40625 15.992188 14.242188 L 9.023438 27.210938 C 8.589844 28.011719 8.605469 28.894531 9.074219 29.695312 C 9.558594 30.480469 10.324219 30.929688 11.242188 30.929688 L 25.195312 30.929688 C 26.113281 30.929688 26.878906 30.480469 27.347656 29.695312 C 27.832031 28.894531 27.847656 28.011719 27.414062 27.210938 L 25.644531 23.945312 L 20.109375 23.945312 C 18.761719 23.945312 17.660156 22.84375 17.660156 21.492188 L 17.660156 18.125 C 17.660156 16.777344 18.761719 15.675781 20.109375 15.675781 L 21.210938 15.675781 L 20.445312 14.242188 C 19.976562 13.40625 19.175781 12.90625 18.210938 12.90625 Z M 18.210938 12.90625 "/></g><path style=" stroke:none;fill-rule:evenodd;fill:#000000;fill-opacity:1;" d="M 27.648438 23.945312 L 20.109375 23.945312 C 18.761719 23.945312 17.660156 22.84375 17.660156 21.492188 L 17.660156 18.125 C 17.660156 16.777344 18.761719 15.675781 20.109375 15.675781 L 27.648438 15.675781 C 28.996094 15.675781 30.097656 16.777344 30.097656 18.125 L 30.097656 21.492188 C 30.097656 22.84375 28.996094 23.945312 27.648438 23.945312 Z M 20.109375 16.34375 C 19.128906 16.34375 18.328125 17.140625 18.328125 18.125 L 18.328125 21.492188 C 18.328125 22.476562 19.128906 23.277344 20.109375 23.277344 L 27.648438 23.277344 C 28.628906 23.277344 29.429688 22.476562 29.429688 21.492188 L 29.429688 18.125 C 29.429688 17.140625 28.628906 16.34375 27.648438 16.34375 Z M 20.109375 16.34375 "/><path style=" stroke:none;fill-rule:evenodd;fill:#000000;fill-opacity:1;" d="M 19.292969 25.878906 L 17.144531 25.878906 C 16.976562 25.878906 16.828125 25.746094 16.808594 25.5625 L 16.261719 18.691406 C 16.242188 18.609375 16.277344 18.507812 16.34375 18.441406 C 16.410156 18.375 16.492188 18.34375 16.59375 18.34375 L 17.992188 18.34375 C 18.175781 18.34375 18.328125 18.492188 18.328125 18.675781 L 18.328125 21.492188 C 18.328125 22.261719 18.828125 22.945312 19.5625 23.179688 C 19.710938 23.226562 19.792969 23.378906 19.777344 23.527344 L 19.628906 25.5625 C 19.609375 25.746094 19.460938 25.878906 19.292969 25.878906 Z M 17.445312 25.210938 L 18.976562 25.210938 L 19.09375 23.726562 C 18.226562 23.328125 17.660156 22.460938 17.660156 21.492188 L 17.660156 19.011719 L 16.945312 19.011719 Z M 17.445312 25.210938 "/><path style=" stroke:none;fill-rule:evenodd;fill:#000000;fill-opacity:1;" d="M 19.292969 29.097656 L 17.144531 29.097656 C 16.960938 29.097656 16.828125 28.964844 16.808594 28.78125 L 16.710938 27.0625 C 16.710938 26.980469 16.742188 26.878906 16.808594 26.8125 C 16.875 26.746094 16.960938 26.710938 17.042969 26.710938 L 19.378906 26.710938 C 19.476562 26.710938 19.5625 26.746094 19.628906 26.8125 C 19.695312 26.878906 19.726562 26.980469 19.710938 27.0625 L 19.628906 28.78125 C 19.609375 28.964844 19.460938 29.097656 19.292969 29.097656 Z M 17.460938 28.429688 L 18.976562 28.429688 L 19.027344 27.378906 L 17.410156 27.378906 Z M 17.460938 28.429688 "/><path style=" stroke:none;fill-rule:evenodd;fill:#000000;fill-opacity:1;" d="M 24.597656 21.894531 C 23.828125 21.894531 23.210938 20.976562 23.210938 19.808594 C 23.210938 18.644531 23.828125 17.726562 24.597656 17.726562 C 25.363281 17.726562 25.964844 18.644531 25.964844 19.808594 C 25.964844 20.976562 25.363281 21.894531 24.597656 21.894531 Z M 24.597656 18.394531 C 24.261719 18.394531 23.878906 18.992188 23.878906 19.808594 C 23.878906 20.628906 24.261719 21.226562 24.597656 21.226562 C 24.929688 21.226562 25.296875 20.628906 25.296875 19.808594 C 25.296875 18.992188 24.929688 18.394531 24.597656 18.394531 Z M 24.597656 18.394531 "/><path style=" stroke:none;fill-rule:evenodd;fill:#000000;fill-opacity:1;" d="M 27.246094 21.894531 C 27.0625 21.894531 26.914062 21.742188 26.914062 21.5625 L 26.914062 18.609375 L 26.664062 18.742188 C 26.511719 18.828125 26.3125 18.777344 26.214844 18.609375 C 26.128906 18.441406 26.195312 18.242188 26.363281 18.160156 L 27.097656 17.757812 C 27.195312 17.710938 27.332031 17.710938 27.429688 17.777344 C 27.53125 17.84375 27.582031 17.941406 27.582031 18.058594 L 27.582031 21.5625 C 27.582031 21.742188 27.429688 21.894531 27.246094 21.894531 Z M 27.246094 21.894531 "/><path style=" stroke:none;fill-rule:evenodd;fill:#000000;fill-opacity:1;" d="M 27.746094 21.894531 L 26.761719 21.894531 C 26.578125 21.894531 26.429688 21.742188 26.429688 21.5625 C 26.429688 21.378906 26.578125 21.226562 26.761719 21.226562 L 27.746094 21.226562 C 27.929688 21.226562 28.082031 21.378906 28.082031 21.5625 C 28.082031 21.742188 27.929688 21.894531 27.746094 21.894531 Z M 27.746094 21.894531 "/><path style=" stroke:none;fill-rule:evenodd;fill:#000000;fill-opacity:1;" d="M 22.011719 21.894531 C 21.828125 21.894531 21.679688 21.742188 21.679688 21.5625 C 21.679688 21.410156 21.679688 21.078125 21.679688 20.660156 L 20.027344 20.660156 C 19.894531 20.660156 19.777344 20.59375 19.710938 20.476562 C 19.660156 20.359375 19.679688 20.210938 19.761719 20.109375 L 21.679688 17.84375 C 21.761719 17.742188 21.894531 17.710938 22.027344 17.742188 C 22.160156 17.777344 22.246094 17.894531 22.261719 18.027344 C 22.296875 18.460938 22.328125 19.261719 22.328125 19.992188 L 22.730469 19.992188 C 22.914062 19.992188 23.0625 20.144531 23.0625 20.328125 C 23.0625 20.511719 22.914062 20.660156 22.730469 20.660156 L 22.34375 20.660156 C 22.34375 21.042969 22.34375 21.378906 22.34375 21.5625 C 22.34375 21.742188 22.195312 21.894531 22.011719 21.894531 Z M 20.726562 19.992188 L 21.660156 19.992188 C 21.660156 19.625 21.644531 19.261719 21.644531 18.925781 Z M 20.726562 19.992188 "/></g></svg>