<svg xmlns="http://www.w3.org/2000/svg" xmlns:xlink="http://www.w3.org/1999/xlink" width="48" zoomAndPan="magnify" viewBox="0 0 36 36.000001" height="48" preserveAspectRatio="xMidYMid meet" version="1.2"><defs><clipPath id="16a85016ca"><path d="M 23 14 L 34.398438 14 L 34.398438 24 L 23 24 Z M 23 14 "/></clipPath><clipPath id="99f1a5d653"><path d="M 1.5625 14 L 13 14 L 13 24 L 1.5625 24 Z M 1.5625 14 "/></clipPath><clipPath id="bcb1a88de5"><path d="M 16 2.335938 L 25 2.335938 L 25 14 L 16 14 Z M 16 2.335938 "/></clipPath></defs><g id="cf5531b8dc"><path style=" stroke:none;fill-rule:nonzero;fill:#000000;fill-opacity:1;" d="M 21.660156 20.8125 C 21.992188 20.8125 22.261719 20.542969 22.261719 20.214844 L 22.261719 14.609375 C 22.261719 14.28125 21.992188 14.011719 21.660156 14.011719 L 20.441406 14.011719 C 20.109375 14.011719 19.839844 14.28125 19.839844 14.609375 L 19.839844 20.214844 C 19.839844 20.542969 20.109375 20.8125 20.441406 20.8125 Z M 21.660156 20.8125 "/><path style=" stroke:none;fill-rule:nonzero;fill:#000000;fill-opacity:1;" d="M 15.886719 14.011719 L 14.667969 14.011719 C 14.335938 14.011719 14.066406 14.28125 14.066406 14.609375 L 14.066406 20.214844 C 14.066406 20.542969 14.335938 20.8125 14.667969 20.8125 L 15.886719 20.8125 C 16.21875 20.8125 16.488281 20.542969 16.488281 20.214844 L 16.488281 19.6875 L 17.464844 19.6875 C 17.734375 19.6875 17.953125 19.472656 17.953125 19.203125 C 17.953125 18.933594 17.734375 18.714844 17.464844 18.714844 L 16.488281 18.714844 L 16.488281 16.109375 L 17.464844 16.109375 C 17.734375 16.109375 17.953125 15.890625 17.953125 15.621094 C 17.953125 15.351562 17.734375 15.136719 17.464844 15.136719 L 16.488281 15.136719 L 16.488281 14.609375 C 16.488281 14.28125 16.21875 14.011719 15.886719 14.011719 Z M 15.886719 14.011719 "/><g clip-rule="nonzero" clip-path="url(#16a85016ca)"><path style=" stroke:none;fill-rule:nonzero;fill:#000000;fill-opacity:1;" d="M 33.628906 22.707031 L 32.429688 22.707031 C 31.75 22.707031 31.199219 22.15625 31.199219 21.480469 L 31.199219 19.125 C 31.199219 17.910156 30.207031 16.925781 28.988281 16.925781 L 27.921875 16.925781 C 27.722656 16.410156 27.226562 16.042969 26.640625 16.042969 C 26.636719 16.042969 26.632812 16.046875 26.628906 16.046875 C 26.605469 15.347656 26.039062 14.785156 25.332031 14.785156 L 23.527344 14.785156 L 23.527344 20.039062 L 25.332031 20.039062 C 26.039062 20.039062 26.605469 19.476562 26.628906 18.777344 C 26.632812 18.777344 26.636719 18.78125 26.640625 18.78125 C 27.226562 18.78125 27.722656 18.414062 27.921875 17.898438 L 28.988281 17.898438 C 29.667969 17.898438 30.21875 18.449219 30.21875 19.125 L 30.21875 21.480469 C 30.21875 22.695312 31.210938 23.679688 32.429688 23.679688 L 33.628906 23.679688 C 33.898438 23.679688 34.117188 23.460938 34.117188 23.191406 C 34.117188 22.925781 33.898438 22.707031 33.628906 22.707031 Z M 33.628906 22.707031 "/></g><g clip-rule="nonzero" clip-path="url(#99f1a5d653)"><path style=" stroke:none;fill-rule:nonzero;fill:#000000;fill-opacity:1;" d="M 3.53125 23.679688 C 4.75 23.679688 5.738281 22.695312 5.738281 21.480469 L 5.738281 19.125 C 5.738281 18.449219 6.292969 17.898438 6.972656 17.898438 L 8.316406 17.898438 C 8.347656 17.898438 8.375 17.886719 8.402344 17.882812 C 8.59375 18.402344 9.097656 18.78125 9.6875 18.78125 C 9.691406 18.78125 9.695312 18.777344 9.699219 18.777344 C 9.722656 19.476562 10.289062 20.039062 11 20.039062 L 12.800781 20.039062 L 12.800781 14.785156 L 11 14.785156 C 10.289062 14.785156 9.722656 15.347656 9.699219 16.046875 C 9.695312 16.046875 9.691406 16.042969 9.6875 16.042969 C 9.097656 16.042969 8.597656 16.421875 8.402344 16.941406 C 8.375 16.9375 8.347656 16.925781 8.316406 16.925781 L 6.972656 16.925781 C 5.753906 16.925781 4.761719 17.910156 4.761719 19.125 L 4.761719 21.480469 C 4.761719 22.15625 4.210938 22.707031 3.53125 22.707031 L 2.332031 22.707031 C 2.0625 22.707031 1.84375 22.925781 1.84375 23.191406 C 1.84375 23.460938 2.0625 23.679688 2.332031 23.679688 Z M 3.53125 23.679688 "/></g><path style=" stroke:none;fill-rule:nonzero;fill:#000000;fill-opacity:1;" d="M 13.410156 23.996094 C 13.0625 23.996094 12.792969 24.128906 12.558594 24.480469 L 10.542969 27.40625 C 10.363281 27.667969 10.195312 27.925781 10.195312 28.238281 C 10.195312 28.703125 10.503906 28.902344 10.972656 28.902344 L 12.632812 28.902344 C 12.648438 29.082031 12.558594 29.496094 12.824219 29.761719 C 13.085938 30.019531 13.648438 30.023438 13.902344 29.757812 C 14.164062 29.484375 14.078125 29.089844 14.09375 28.902344 C 14.195312 28.894531 14.554688 28.949219 14.765625 28.753906 C 14.996094 28.546875 14.972656 28.089844 14.765625 27.898438 C 14.554688 27.703125 14.210938 27.761719 14.09375 27.753906 L 14.09375 24.746094 C 14.09375 24.289062 13.863281 23.996094 13.410156 23.996094 Z M 11.546875 27.753906 L 12.632812 26.160156 L 12.632812 27.753906 Z M 11.546875 27.753906 "/><path style=" stroke:none;fill-rule:nonzero;fill:#000000;fill-opacity:1;" d="M 17.859375 23.980469 C 16.222656 23.980469 15.636719 25.316406 15.636719 26.945312 C 15.636719 28.574219 16.21875 29.972656 17.859375 29.972656 C 19.496094 29.972656 20.082031 28.570312 20.082031 26.945312 C 20.082031 25.304688 19.503906 23.980469 17.859375 23.980469 Z M 18.445312 28.332031 C 18.320312 28.617188 18.125 28.761719 17.859375 28.761719 C 17.136719 28.761719 17.082031 27.675781 17.082031 26.945312 C 17.082031 26.222656 17.132812 25.1875 17.859375 25.1875 C 18.589844 25.1875 18.636719 26.222656 18.636719 26.945312 C 18.636719 27.582031 18.574219 28.042969 18.445312 28.332031 Z M 18.445312 28.332031 "/><path style=" stroke:none;fill-rule:nonzero;fill:#000000;fill-opacity:1;" d="M 24.144531 23.996094 C 23.800781 23.996094 23.53125 24.128906 23.296875 24.480469 C 21.117188 27.65625 20.933594 27.785156 20.933594 28.238281 C 20.933594 28.460938 21 28.628906 21.140625 28.738281 C 21.472656 29.003906 21.886719 28.863281 23.371094 28.902344 C 23.398438 29.011719 23.1875 29.953125 24.105469 29.953125 C 24.335938 29.953125 24.515625 29.890625 24.640625 29.757812 C 24.902344 29.484375 24.816406 29.089844 24.832031 28.902344 L 25.03125 28.902344 C 25.425781 28.902344 25.664062 28.71875 25.664062 28.335938 C 25.664062 27.9375 25.433594 27.753906 25.03125 27.753906 L 24.832031 27.753906 L 24.832031 24.746094 C 24.832031 24.289062 24.601562 23.996094 24.144531 23.996094 Z M 22.285156 27.753906 L 23.371094 26.160156 L 23.371094 27.753906 Z M 22.285156 27.753906 "/><g clip-rule="nonzero" clip-path="url(#bcb1a88de5)"><path style=" stroke:none;fill-rule:nonzero;fill:#000000;fill-opacity:1;" d="M 24.183594 6.679688 L 21.3125 6.679688 C 21.085938 6.679688 20.964844 6.414062 21.113281 6.246094 L 24.195312 2.765625 C 24.34375 2.597656 24.226562 2.332031 24 2.332031 L 21.847656 2.332031 C 21.566406 2.332031 21.300781 2.457031 21.121094 2.671875 L 16.917969 7.734375 C 16.695312 8.003906 16.890625 8.414062 17.242188 8.414062 L 19.957031 8.414062 C 20.15625 8.414062 20.28125 8.628906 20.1875 8.800781 L 17.972656 12.800781 C 17.808594 13.097656 18.203125 13.386719 18.441406 13.144531 L 24.371094 7.121094 C 24.535156 6.957031 24.417969 6.679688 24.183594 6.679688 Z M 24.183594 6.679688 "/></g></g></svg>