<svg xmlns="http://www.w3.org/2000/svg" xmlns:xlink="http://www.w3.org/1999/xlink" width="48" zoomAndPan="magnify" viewBox="0 0 36 36.000001" height="48" preserveAspectRatio="xMidYMid meet" version="1.2"><defs><clipPath id="454dbd11e5"><path d="M 2.878906 4.003906 L 33.277344 4.003906 L 33.277344 30.996094 L 2.878906 30.996094 Z M 2.878906 4.003906 "/></clipPath></defs><g id="094e77afc1"><g clip-rule="nonzero" clip-path="url(#454dbd11e5)"><path style=" stroke:none;fill-rule:nonzero;fill:#100f0d;fill-opacity:1;" d="M 27.992188 18.535156 L 32.265625 18.535156 L 32.265625 22.6875 L 27.992188 22.6875 C 26.839844 22.679688 25.910156 21.746094 25.914062 20.601562 C 25.917969 19.460938 26.84375 18.535156 27.992188 18.535156 Z M 3.882812 11.226562 L 30.589844 11.226562 C 31.515625 11.226562 32.265625 11.976562 32.265625 12.894531 C 32.265625 12.894531 32.265625 12.898438 32.265625 12.898438 L 32.265625 17.53125 L 27.992188 17.53125 C 26.28125 17.535156 24.898438 18.914062 24.902344 20.617188 C 24.902344 22.3125 26.285156 23.683594 27.992188 23.691406 L 32.265625 23.691406 L 32.265625 28.320312 C 32.269531 29.246094 31.515625 29.992188 30.589844 29.992188 L 5.5625 29.992188 C 4.636719 29.992188 3.882812 29.246094 3.882812 28.324219 C 3.882812 28.320312 3.882812 28.320312 3.882812 28.320312 Z M 25.945312 6.882812 L 27.890625 6.882812 C 28.820312 6.882812 29.570312 7.632812 29.570312 8.554688 L 29.570312 10.226562 L 27.195312 10.226562 Z M 5.542969 6.882812 L 16.441406 6.882812 L 7.386719 10.226562 L 5.542969 10.226562 C 4.613281 10.21875 3.871094 9.464844 3.878906 8.539062 C 3.886719 7.636719 4.613281 6.90625 5.515625 6.882812 Z M 24.203125 5.097656 L 26.117188 10.226562 L 10.304688 10.226562 Z M 24.410156 4 C 24.328125 4 24.246094 4.011719 24.171875 4.042969 L 19.179688 5.882812 L 5.5625 5.882812 C 4.078125 5.882812 2.878906 7.082031 2.878906 8.554688 L 2.878906 28.320312 C 2.878906 29.796875 4.078125 30.996094 5.5625 30.996094 L 30.589844 30.996094 C 32.074219 30.996094 33.277344 29.796875 33.277344 28.320312 L 33.277344 12.898438 C 33.277344 11.421875 32.074219 10.226562 30.589844 10.226562 C 30.589844 10.226562 30.585938 10.226562 30.578125 10.226562 L 30.578125 8.554688 C 30.578125 7.082031 29.378906 5.882812 27.894531 5.882812 L 25.574219 5.882812 L 25.035156 4.433594 C 24.9375 4.175781 24.691406 4.003906 24.414062 4 L 24.410156 4 "/></g><path style=" stroke:none;fill-rule:nonzero;fill:#100f0d;fill-opacity:1;" d="M 29.191406 20.609375 C 29.191406 20.160156 28.824219 19.796875 28.371094 19.796875 C 27.917969 19.796875 27.550781 20.15625 27.550781 20.609375 C 27.550781 21.058594 27.917969 21.425781 28.371094 21.425781 C 28.824219 21.425781 29.191406 21.058594 29.191406 20.613281 C 29.191406 20.613281 29.191406 20.613281 29.191406 20.609375 "/></g></svg>