<svg xmlns="http://www.w3.org/2000/svg" xmlns:xlink="http://www.w3.org/1999/xlink" width="48" zoomAndPan="magnify" viewBox="0 0 36 36.000001" height="48" preserveAspectRatio="xMidYMid meet" version="1.2"><defs><clipPath id="d3d2b62a76"><path d="M 3.003906 0.6875 L 32.921875 0.6875 L 32.921875 34.253906 L 3.003906 34.253906 Z M 3.003906 0.6875 "/></clipPath></defs><g id="136cb8efef"><g clip-rule="nonzero" clip-path="url(#d3d2b62a76)"><path style=" stroke:none;fill-rule:nonzero;fill:#000000;fill-opacity:1;" d="M 3.28125 25.855469 L 17.695312 34.089844 C 17.777344 34.136719 17.867188 34.164062 17.96875 34.164062 C 18.015625 34.164062 18.0625 34.15625 18.105469 34.144531 C 18.121094 34.140625 18.136719 34.128906 18.152344 34.125 C 18.183594 34.113281 18.210938 34.109375 18.238281 34.09375 L 18.242188 34.09375 L 32.648438 25.859375 C 32.820312 25.761719 32.925781 25.582031 32.925781 25.382812 L 32.925781 9.425781 C 32.925781 9.382812 32.917969 9.339844 32.910156 9.300781 C 32.90625 9.289062 32.902344 9.277344 32.898438 9.265625 C 32.886719 9.234375 32.875 9.203125 32.859375 9.175781 C 32.855469 9.164062 32.851562 9.152344 32.84375 9.140625 C 32.820312 9.105469 32.796875 9.070312 32.761719 9.039062 C 32.761719 9.039062 32.757812 9.035156 32.753906 9.035156 C 32.726562 9.007812 32.691406 8.980469 32.65625 8.960938 C 32.652344 8.957031 32.648438 8.953125 32.640625 8.949219 L 18.230469 0.886719 C 18.0625 0.796875 17.863281 0.796875 17.695312 0.886719 L 10.074219 5.152344 C 10.070312 5.152344 10.070312 5.15625 10.066406 5.15625 L 3.285156 8.949219 C 3.28125 8.953125 3.277344 8.957031 3.269531 8.960938 C 3.234375 8.980469 3.199219 9.007812 3.167969 9.035156 C 3.167969 9.035156 3.164062 9.035156 3.164062 9.039062 C 3.136719 9.070312 3.105469 9.105469 3.085938 9.140625 C 3.078125 9.152344 3.074219 9.164062 3.066406 9.171875 C 3.050781 9.199219 3.035156 9.234375 3.027344 9.265625 C 3.023438 9.277344 3.019531 9.289062 3.015625 9.300781 C 3.011719 9.339844 3.003906 9.382812 3.003906 9.425781 L 3.003906 25.382812 C 3.003906 25.578125 3.109375 25.761719 3.28125 25.855469 Z M 4.097656 25.0625 L 4.097656 10.324219 L 17.417969 17.214844 L 17.417969 32.671875 Z M 18.511719 32.675781 L 18.511719 17.394531 L 24.699219 14.113281 L 24.699219 17.902344 C 24.699219 18.203125 24.945312 18.449219 25.246094 18.449219 C 25.550781 18.449219 25.792969 18.203125 25.792969 17.902344 L 25.792969 13.535156 L 31.828125 10.335938 L 31.828125 25.0625 Z M 17.964844 1.992188 L 31.230469 9.417969 L 25.238281 12.59375 L 11.5 5.605469 Z M 10.351562 6.25 L 24.058594 13.21875 L 18.132812 16.359375 L 4.703125 9.410156 Z M 10.351562 6.25 "/></g></g></svg>