<svg xmlns="http://www.w3.org/2000/svg" xmlns:xlink="http://www.w3.org/1999/xlink" width="48" zoomAndPan="magnify" viewBox="0 0 36 36.000001" height="48" preserveAspectRatio="xMidYMid meet" version="1.2"><defs><clipPath id="e456d4d90f"><path d="M 2.164062 1.679688 L 33.542969 1.679688 L 33.542969 33.058594 L 2.164062 33.058594 Z M 2.164062 1.679688 "/></clipPath></defs><g id="4298663eb2"><g clip-rule="nonzero" clip-path="url(#e456d4d90f)"><path style=" stroke:none;fill-rule:nonzero;fill:#000000;fill-opacity:1;" d="M 33.542969 17.371094 C 33.542969 26.035156 26.519531 33.058594 17.851562 33.058594 C 9.1875 33.058594 2.164062 26.035156 2.164062 17.371094 C 2.164062 8.703125 9.1875 1.679688 17.851562 1.679688 C 26.519531 1.679688 33.542969 8.703125 33.542969 17.371094 M 32.242188 17.371094 C 32.242188 9.421875 25.800781 2.980469 17.851562 2.980469 C 9.90625 2.980469 3.464844 9.421875 3.464844 17.371094 C 3.464844 25.316406 9.90625 31.757812 17.851562 31.757812 C 25.800781 31.757812 32.242188 25.316406 32.242188 17.371094 Z M 32.242188 17.371094 "/></g><path style=" stroke:none;fill-rule:nonzero;fill:#000000;fill-opacity:1;" d="M 10.589844 25.082031 L 25.300781 24.980469 L 24.65625 25.589844 L 25.644531 10.65625 L 26.304688 11.347656 L 9.242188 11.714844 L 9.875 11.003906 L 11.242188 25.671875 L 10.589844 25.082031 M 10.597656 26.382812 C 10.261719 26.386719 9.980469 26.128906 9.949219 25.792969 L 8.578125 11.125 C 8.5625 10.945312 8.621094 10.765625 8.742188 10.628906 C 8.863281 10.496094 9.03125 10.417969 9.214844 10.414062 L 26.277344 10.046875 C 26.460938 10.042969 26.636719 10.117188 26.761719 10.25 C 26.886719 10.378906 26.953125 10.558594 26.941406 10.742188 L 25.953125 25.675781 C 25.929688 26.015625 25.648438 26.28125 25.308594 26.285156 Z M 10.597656 26.382812 "/><path style=" stroke:none;fill-rule:nonzero;fill:#000000;fill-opacity:1;" d="M 12.65625 13.355469 L 12.507812 12.984375 C 12.5 12.96875 12.492188 12.949219 12.488281 12.933594 L 12.367188 12.550781 C 12.363281 12.535156 12.359375 12.515625 12.355469 12.5 L 12.269531 12.109375 C 12.265625 12.089844 12.261719 12.074219 12.257812 12.054688 L 12.203125 11.65625 C 12.203125 11.640625 12.199219 11.621094 12.199219 11.605469 L 12.179688 11.203125 C 12.179688 11.1875 12.179688 11.167969 12.179688 11.148438 L 12.191406 10.75 C 12.191406 10.730469 12.191406 10.714844 12.195312 10.695312 L 12.242188 10.296875 C 12.242188 10.28125 12.246094 10.261719 12.25 10.242188 L 12.328125 9.851562 C 12.332031 9.832031 12.335938 9.816406 12.339844 9.796875 L 12.453125 9.414062 C 12.457031 9.394531 12.460938 9.378906 12.46875 9.363281 L 12.613281 8.988281 C 12.617188 8.972656 12.625 8.953125 12.632812 8.9375 L 12.808594 8.578125 C 12.816406 8.5625 12.824219 8.542969 12.832031 8.53125 L 13.035156 8.183594 C 13.042969 8.167969 13.054688 8.152344 13.0625 8.136719 L 13.296875 7.8125 C 13.304688 7.796875 13.316406 7.78125 13.328125 7.769531 L 13.585938 7.460938 C 13.597656 7.445312 13.609375 7.433594 13.621094 7.421875 L 13.902344 7.136719 C 13.917969 7.125 13.929688 7.109375 13.941406 7.097656 L 14.246094 6.839844 C 14.261719 6.828125 14.277344 6.816406 14.289062 6.804688 L 14.617188 6.570312 C 14.628906 6.5625 14.644531 6.550781 14.660156 6.542969 L 15.003906 6.335938 C 15.019531 6.328125 15.035156 6.316406 15.050781 6.308594 L 15.410156 6.132812 C 15.425781 6.125 15.445312 6.117188 15.460938 6.113281 L 15.832031 5.964844 C 15.851562 5.957031 15.867188 5.953125 15.882812 5.949219 L 16.269531 5.832031 C 16.285156 5.828125 16.304688 5.824219 16.320312 5.820312 L 16.714844 5.738281 C 16.730469 5.734375 16.75 5.730469 16.765625 5.726562 L 17.164062 5.679688 C 17.183594 5.675781 17.199219 5.675781 17.21875 5.671875 L 17.617188 5.65625 C 17.636719 5.65625 17.65625 5.65625 17.671875 5.65625 L 18.078125 5.675781 C 18.09375 5.675781 18.113281 5.675781 18.132812 5.679688 L 18.53125 5.730469 C 18.550781 5.730469 18.570312 5.734375 18.585938 5.738281 L 18.984375 5.824219 C 19 5.828125 19.019531 5.832031 19.035156 5.835938 L 19.421875 5.957031 C 19.441406 5.960938 19.457031 5.964844 19.476562 5.972656 L 19.851562 6.125 C 19.867188 6.128906 19.882812 6.136719 19.902344 6.144531 L 20.261719 6.328125 C 20.28125 6.335938 20.296875 6.34375 20.3125 6.351562 L 20.65625 6.5625 C 20.671875 6.574219 20.6875 6.582031 20.703125 6.59375 L 21.027344 6.832031 C 21.042969 6.84375 21.058594 6.855469 21.070312 6.867188 L 21.378906 7.132812 C 21.390625 7.144531 21.40625 7.15625 21.417969 7.171875 L 21.699219 7.460938 C 21.710938 7.472656 21.722656 7.488281 21.734375 7.5 L 21.992188 7.816406 C 22.003906 7.828125 22.015625 7.84375 22.027344 7.859375 L 22.253906 8.191406 C 22.265625 8.207031 22.273438 8.222656 22.285156 8.238281 L 22.484375 8.589844 C 22.492188 8.605469 22.503906 8.621094 22.511719 8.640625 L 22.679688 9.007812 C 22.6875 9.023438 22.695312 9.039062 22.703125 9.058594 L 22.839844 9.4375 C 22.847656 9.453125 22.851562 9.472656 22.855469 9.488281 L 22.964844 9.878906 C 22.96875 9.898438 22.972656 9.914062 22.976562 9.933594 L 23.046875 10.332031 C 23.050781 10.347656 23.054688 10.367188 23.054688 10.386719 L 23.097656 10.789062 C 23.097656 10.804688 23.097656 10.824219 23.097656 10.84375 L 23.105469 11.246094 C 23.105469 11.265625 23.105469 11.285156 23.101562 11.300781 L 23.074219 11.707031 C 23.074219 11.726562 23.070312 11.742188 23.070312 11.761719 L 23.007812 12.160156 C 23.003906 12.179688 23 12.195312 22.996094 12.214844 L 22.898438 12.609375 C 22.894531 12.625 22.890625 12.644531 22.882812 12.660156 L 22.757812 13.042969 C 22.640625 13.386719 22.273438 13.570312 21.933594 13.457031 C 21.59375 13.339844 21.410156 12.972656 21.523438 12.632812 L 21.652344 12.246094 L 21.636719 12.300781 L 21.730469 11.90625 L 21.71875 11.960938 L 21.78125 11.5625 L 21.777344 11.613281 L 21.804688 11.210938 L 21.804688 11.265625 L 21.796875 10.859375 L 21.800781 10.914062 L 21.761719 10.511719 L 21.769531 10.566406 L 21.695312 10.167969 L 21.707031 10.222656 L 21.601562 9.832031 L 21.617188 9.882812 L 21.480469 9.503906 L 21.5 9.554688 L 21.328125 9.1875 L 21.355469 9.234375 L 21.152344 8.882812 L 21.183594 8.929688 L 20.953125 8.597656 L 20.988281 8.640625 L 20.730469 8.328125 L 20.765625 8.367188 L 20.484375 8.078125 L 20.523438 8.113281 L 20.21875 7.847656 L 20.261719 7.882812 L 19.933594 7.644531 L 19.980469 7.675781 L 19.632812 7.464844 L 19.683594 7.492188 L 19.320312 7.308594 L 19.371094 7.332031 L 18.992188 7.183594 L 19.046875 7.199219 L 18.65625 7.082031 L 18.710938 7.097656 L 18.316406 7.011719 L 18.367188 7.019531 L 17.96875 6.96875 L 18.023438 6.972656 L 17.617188 6.957031 L 17.671875 6.957031 L 17.269531 6.972656 L 17.324219 6.96875 L 16.925781 7.019531 L 16.980469 7.011719 L 16.589844 7.09375 L 16.640625 7.078125 L 16.257812 7.195312 L 16.308594 7.175781 L 15.9375 7.324219 L 15.984375 7.300781 L 15.625 7.476562 L 15.675781 7.453125 L 15.332031 7.65625 L 15.375 7.628906 L 15.050781 7.863281 L 15.09375 7.828125 L 14.789062 8.089844 L 14.828125 8.050781 L 14.546875 8.335938 L 14.582031 8.296875 L 14.324219 8.605469 L 14.359375 8.5625 L 14.128906 8.886719 L 14.15625 8.84375 L 13.953125 9.1875 L 13.980469 9.140625 L 13.804688 9.5 L 13.828125 9.453125 L 13.683594 9.824219 L 13.703125 9.773438 L 13.589844 10.160156 L 13.605469 10.105469 L 13.523438 10.5 L 13.535156 10.445312 L 13.488281 10.84375 L 13.492188 10.789062 L 13.480469 11.191406 L 13.480469 11.136719 L 13.5 11.535156 L 13.496094 11.480469 L 13.546875 11.878906 L 13.539062 11.824219 L 13.625 12.21875 L 13.613281 12.164062 L 13.730469 12.546875 L 13.710938 12.496094 L 13.863281 12.867188 C 13.996094 13.199219 13.835938 13.578125 13.503906 13.714844 C 13.171875 13.851562 12.792969 13.6875 12.65625 13.355469 Z M 12.65625 13.355469 "/></g></svg>