<svg xmlns="http://www.w3.org/2000/svg" xmlns:xlink="http://www.w3.org/1999/xlink" width="48" zoomAndPan="magnify" viewBox="0 0 36 36.000001" height="48" preserveAspectRatio="xMidYMid meet" version="1.2"><defs><clipPath id="75b054dd5d"><path d="M 10 6.050781 L 33.363281 6.050781 L 33.363281 12 L 10 12 Z M 10 6.050781 "/></clipPath><clipPath id="817eecb38e"><path d="M 10 14 L 33.363281 14 L 33.363281 21 L 10 21 Z M 10 14 "/></clipPath><clipPath id="459269f200"><path d="M 10 22 L 33.363281 22 L 33.363281 28.671875 L 10 28.671875 Z M 10 22 "/></clipPath><clipPath id="a7f09850dc"><path d="M 2.714844 6.050781 L 9 6.050781 L 9 13 L 2.714844 13 Z M 2.714844 6.050781 "/></clipPath><clipPath id="ec83b789e2"><path d="M 2.714844 14 L 9 14 L 9 21 L 2.714844 21 Z M 2.714844 14 "/></clipPath><clipPath id="baa85cbdb4"><path d="M 2.714844 22 L 9 22 L 9 28.671875 L 2.714844 28.671875 Z M 2.714844 22 "/></clipPath></defs><g id="84df5bba98"><g clip-rule="nonzero" clip-path="url(#75b054dd5d)"><path style=" stroke:none;fill-rule:evenodd;fill:#000000;fill-opacity:1;" d="M 33.367188 9.136719 C 33.367188 7.621094 32.117188 6.394531 30.578125 6.394531 L 13.164062 6.394531 C 11.625 6.394531 10.378906 7.621094 10.378906 9.136719 C 10.378906 10.648438 11.625 11.878906 13.164062 11.878906 L 30.578125 11.878906 C 32.117188 11.878906 33.367188 10.648438 33.367188 9.136719 Z M 31.972656 9.136719 C 31.972656 9.894531 31.347656 10.507812 30.578125 10.507812 L 13.164062 10.507812 C 12.394531 10.507812 11.773438 9.894531 11.773438 9.136719 C 11.773438 8.378906 12.394531 7.765625 13.164062 7.765625 L 30.578125 7.765625 C 31.347656 7.765625 31.972656 8.378906 31.972656 9.136719 Z M 31.972656 9.136719 "/></g><g clip-rule="nonzero" clip-path="url(#817eecb38e)"><path style=" stroke:none;fill-rule:evenodd;fill:#000000;fill-opacity:1;" d="M 33.367188 17.355469 C 33.367188 15.84375 32.117188 14.613281 30.578125 14.613281 L 13.164062 14.613281 C 11.625 14.613281 10.378906 15.84375 10.378906 17.355469 C 10.378906 18.871094 11.625 20.097656 13.164062 20.097656 L 30.578125 20.097656 C 32.117188 20.097656 33.367188 18.871094 33.367188 17.355469 Z M 31.972656 17.355469 C 31.972656 18.113281 31.347656 18.726562 30.578125 18.726562 L 13.164062 18.726562 C 12.394531 18.726562 11.773438 18.113281 11.773438 17.355469 C 11.773438 16.597656 12.394531 15.984375 13.164062 15.984375 L 30.578125 15.984375 C 31.347656 15.984375 31.972656 16.597656 31.972656 17.355469 Z M 31.972656 17.355469 "/></g><g clip-rule="nonzero" clip-path="url(#459269f200)"><path style=" stroke:none;fill-rule:evenodd;fill:#000000;fill-opacity:1;" d="M 33.367188 25.578125 C 33.367188 24.0625 32.117188 22.835938 30.578125 22.835938 L 13.164062 22.835938 C 11.625 22.835938 10.378906 24.0625 10.378906 25.578125 C 10.378906 27.089844 11.625 28.320312 13.164062 28.320312 L 30.578125 28.320312 C 32.117188 28.320312 33.367188 27.089844 33.367188 25.578125 Z M 31.972656 25.578125 C 31.972656 26.335938 31.347656 26.949219 30.578125 26.949219 L 13.164062 26.949219 C 12.394531 26.949219 11.773438 26.335938 11.773438 25.578125 C 11.773438 24.820312 12.394531 24.207031 13.164062 24.207031 L 30.578125 24.207031 C 31.347656 24.207031 31.972656 24.820312 31.972656 25.578125 Z M 31.972656 25.578125 "/></g><g clip-rule="nonzero" clip-path="url(#a7f09850dc)"><path style=" stroke:none;fill-rule:evenodd;fill:#000000;fill-opacity:1;" d="M 5.851562 6.058594 C 4.121094 6.058594 2.71875 7.4375 2.71875 9.140625 C 2.71875 10.84375 4.121094 12.226562 5.851562 12.226562 C 7.582031 12.226562 8.988281 10.84375 8.988281 9.140625 C 8.988281 7.4375 7.582031 6.058594 5.851562 6.058594 Z M 5.851562 7.429688 C 6.8125 7.429688 7.59375 8.195312 7.59375 9.140625 C 7.59375 10.089844 6.8125 10.855469 5.851562 10.855469 C 4.890625 10.855469 4.109375 10.089844 4.109375 9.140625 C 4.109375 8.195312 4.890625 7.429688 5.851562 7.429688 Z M 5.851562 7.429688 "/></g><g clip-rule="nonzero" clip-path="url(#ec83b789e2)"><path style=" stroke:none;fill-rule:evenodd;fill:#000000;fill-opacity:1;" d="M 5.851562 14.277344 C 4.121094 14.277344 2.71875 15.660156 2.71875 17.363281 C 2.71875 19.066406 4.121094 20.449219 5.851562 20.449219 C 7.582031 20.449219 8.988281 19.066406 8.988281 17.363281 C 8.988281 15.660156 7.582031 14.277344 5.851562 14.277344 Z M 5.851562 15.648438 C 6.8125 15.648438 7.59375 16.417969 7.59375 17.363281 C 7.59375 18.308594 6.8125 19.074219 5.851562 19.074219 C 4.890625 19.074219 4.109375 18.308594 4.109375 17.363281 C 4.109375 16.417969 4.890625 15.648438 5.851562 15.648438 Z M 5.851562 15.648438 "/></g><g clip-rule="nonzero" clip-path="url(#baa85cbdb4)"><path style=" stroke:none;fill-rule:evenodd;fill:#000000;fill-opacity:1;" d="M 5.851562 22.5 C 4.121094 22.5 2.71875 23.878906 2.71875 25.582031 C 2.71875 27.285156 4.121094 28.667969 5.851562 28.667969 C 7.582031 28.667969 8.988281 27.285156 8.988281 25.582031 C 8.988281 23.878906 7.582031 22.5 5.851562 22.5 Z M 5.851562 23.867188 C 6.8125 23.867188 7.59375 24.636719 7.59375 25.582031 C 7.59375 26.527344 6.8125 27.296875 5.851562 27.296875 C 4.890625 27.296875 4.109375 26.527344 4.109375 25.582031 C 4.109375 24.636719 4.890625 23.867188 5.851562 23.867188 Z M 5.851562 23.867188 "/></g></g></svg>