<svg xmlns="http://www.w3.org/2000/svg" xmlns:xlink="http://www.w3.org/1999/xlink" width="48" zoomAndPan="magnify" viewBox="0 0 36 36.000001" height="48" preserveAspectRatio="xMidYMid meet" version="1.2"><g id="021570d842"><path style=" stroke:none;fill-rule:evenodd;fill:#000000;fill-opacity:1;" d="M 21.394531 17.667969 L 31.109375 7.949219 C 32.003906 7.054688 32.003906 5.605469 31.109375 4.710938 C 30.21875 3.816406 28.765625 3.816406 27.871094 4.710938 L 18.152344 14.425781 L 8.4375 4.710938 C 7.542969 3.816406 6.089844 3.816406 5.195312 4.710938 C 4.304688 5.601562 4.300781 7.054688 5.199219 7.949219 L 14.914062 17.667969 L 5.199219 27.382812 C 4.304688 28.277344 4.300781 29.730469 5.195312 30.625 C 6.089844 31.515625 7.542969 31.515625 8.4375 30.621094 L 18.152344 20.90625 L 27.871094 30.621094 C 28.765625 31.515625 30.214844 31.519531 31.109375 30.625 C 32.003906 29.730469 32.003906 28.277344 31.109375 27.382812 Z M 21.394531 17.667969 "/></g></svg>