<svg xmlns="http://www.w3.org/2000/svg" xmlns:xlink="http://www.w3.org/1999/xlink" width="40" zoomAndPan="magnify" viewBox="0 0 30 30.000001" height="40" preserveAspectRatio="xMidYMid meet" version="1.2"><defs><clipPath id="a8b487f811"><path d="M 1.609375 1.125 L 28.464844 1.125 L 28.464844 27.980469 L 1.609375 27.980469 Z M 1.609375 1.125 "/></clipPath></defs><g id="598ccbe9e3"><g clip-rule="nonzero" clip-path="url(#a8b487f811)"><path style=" stroke:none;fill-rule:nonzero;fill:#000000;fill-opacity:1;" d="M 15.035156 2.328125 C 18.300781 2.328125 21.371094 3.597656 23.679688 5.910156 C 25.988281 8.21875 27.261719 11.289062 27.261719 14.554688 C 27.261719 17.816406 25.988281 20.886719 23.679688 23.195312 C 21.371094 25.507812 18.300781 26.777344 15.035156 26.777344 C 11.769531 26.777344 8.699219 25.507812 6.390625 23.195312 C 4.082031 20.886719 2.8125 17.816406 2.8125 14.554688 C 2.8125 11.289062 4.082031 8.21875 6.390625 5.910156 C 8.699219 3.597656 11.769531 2.328125 15.035156 2.328125 M 15.035156 1.125 C 7.621094 1.125 1.609375 7.136719 1.609375 14.554688 C 1.609375 21.96875 7.621094 27.980469 15.035156 27.980469 C 22.453125 27.980469 28.464844 21.96875 28.464844 14.554688 C 28.464844 7.136719 22.453125 1.125 15.035156 1.125 Z M 15.035156 1.125 "/></g><path style=" stroke:none;fill-rule:nonzero;fill:#000000;fill-opacity:1;" d="M 21.582031 9.425781 C 21.523438 9.644531 21.359375 9.796875 21.226562 9.964844 C 20.460938 10.9375 19.6875 11.910156 18.917969 12.882812 C 18.714844 13.140625 18.375 13.183594 18.117188 12.976562 C 17.847656 12.769531 17.800781 12.429688 18.007812 12.171875 C 18.851562 11.101562 19.699219 10.03125 20.542969 8.960938 C 20.683594 8.789062 20.863281 8.707031 21.078125 8.746094 C 21.300781 8.78125 21.460938 8.914062 21.546875 9.125 C 21.5625 9.15625 21.570312 9.183594 21.582031 9.214844 C 21.582031 9.285156 21.582031 9.355469 21.582031 9.425781 Z M 21.582031 9.425781 "/><path style=" stroke:none;fill-rule:nonzero;fill:#000000;fill-opacity:1;" d="M 12.988281 17.363281 C 12.058594 18.535156 11.140625 19.699219 10.203125 20.886719 C 10.113281 20.789062 10.03125 20.699219 9.949219 20.605469 C 9.417969 20.027344 8.992188 19.378906 8.730469 18.628906 C 8.441406 17.789062 8.425781 16.933594 8.613281 16.070312 C 8.800781 15.199219 9.152344 14.394531 9.582031 13.621094 C 10.511719 11.9375 11.652344 10.410156 13.019531 9.054688 C 13.578125 8.5 14.1875 8.011719 14.890625 7.648438 C 15.523438 7.320312 16.1875 7.128906 16.90625 7.140625 C 17.550781 7.152344 18.164062 7.3125 18.753906 7.566406 C 19.132812 7.730469 19.5 7.917969 19.816406 8.191406 C 19.898438 8.261719 19.972656 8.34375 20.050781 8.421875 C 19.8125 8.722656 19.578125 9.015625 19.347656 9.308594 C 18.699219 10.132812 18.046875 10.957031 17.398438 11.78125 C 17.347656 11.847656 17.296875 11.859375 17.238281 11.820312 C 17.152344 11.765625 17.058594 11.714844 16.992188 11.636719 C 16.742188 11.359375 16.503906 11.066406 16.261719 10.78125 C 16.214844 10.726562 16.175781 10.671875 16.125 10.621094 C 15.878906 10.386719 15.625 10.355469 15.347656 10.558594 C 15.097656 10.738281 14.851562 10.929688 14.628906 11.140625 C 13.75 11.964844 13.015625 12.910156 12.375 13.929688 C 12.015625 14.496094 11.691406 15.078125 11.46875 15.714844 C 11.429688 15.828125 11.402344 15.949219 11.382812 16.070312 C 11.34375 16.308594 11.429688 16.503906 11.636719 16.625 C 11.824219 16.738281 12.027344 16.824219 12.222656 16.925781 C 12.4375 17.035156 12.648438 17.148438 12.855469 17.265625 C 12.902344 17.289062 12.9375 17.324219 12.988281 17.363281 Z M 12.988281 17.363281 "/><path style=" stroke:none;fill-rule:nonzero;fill:#000000;fill-opacity:1;" d="M 13.902344 17.753906 C 14.101562 17.765625 14.28125 17.882812 14.386719 18.09375 C 14.492188 18.300781 14.464844 18.503906 14.320312 18.6875 C 13.476562 19.757812 12.628906 20.828125 11.785156 21.894531 C 11.625 22.097656 11.394531 22.171875 11.164062 22.097656 C 10.929688 22.023438 10.761719 21.820312 10.746094 21.574219 C 10.734375 21.429688 10.777344 21.300781 10.871094 21.183594 C 11.429688 20.476562 11.988281 19.769531 12.550781 19.058594 C 12.828125 18.710938 13.105469 18.363281 13.378906 18.011719 C 13.503906 17.851562 13.652344 17.75 13.902344 17.753906 Z M 13.902344 17.753906 "/></g></svg>