<svg xmlns="http://www.w3.org/2000/svg" xmlns:xlink="http://www.w3.org/1999/xlink" width="48" zoomAndPan="magnify" viewBox="0 0 36 36.000001" height="48" preserveAspectRatio="xMidYMid meet" version="1.2"><defs><clipPath id="043c56f247"><path d="M 2.601562 2.117188 L 33.25 2.117188 L 33.25 32.765625 L 2.601562 32.765625 Z M 2.601562 2.117188 "/></clipPath></defs><g id="16cd516fa1"><g clip-rule="nonzero" clip-path="url(#043c56f247)"><path style=" stroke:none;fill-rule:nonzero;fill:#231f20;fill-opacity:1;" d="M 33.125 2.699219 C 32.921875 2.3125 32.601562 2.117188 32.160156 2.117188 L 3.800781 2.117188 C 3.363281 2.117188 3.039062 2.3125 2.835938 2.699219 C 2.632812 3.089844 2.65625 3.464844 2.90625 3.828125 L 12.527344 17.726562 L 12.527344 31.566406 C 12.527344 32.015625 12.730469 32.339844 13.132812 32.539062 C 13.53125 32.742188 13.914062 32.707031 14.273438 32.4375 L 23 25.894531 C 23.289062 25.675781 23.433594 25.382812 23.433594 25.019531 L 23.433594 17.726562 L 33.058594 3.828125 C 33.308594 3.464844 33.332031 3.089844 33.125 2.699219 Z M 21.449219 16.765625 C 21.316406 16.953125 21.253906 17.160156 21.253906 17.386719 L 21.253906 24.476562 L 14.710938 29.382812 L 14.710938 17.386719 C 14.710938 17.160156 14.644531 16.953125 14.515625 16.765625 L 5.882812 4.296875 L 30.078125 4.296875 Z M 21.449219 16.765625 "/></g></g></svg>