<svg xmlns="http://www.w3.org/2000/svg" xmlns:xlink="http://www.w3.org/1999/xlink" width="48" zoomAndPan="magnify" viewBox="0 0 36 36.000001" height="48" preserveAspectRatio="xMidYMid meet" version="1.2"><defs><clipPath id="7bb33f18ae"><path d="M 1.800781 1.3125 L 33.90625 1.3125 L 33.90625 33.421875 L 1.800781 33.421875 Z M 1.800781 1.3125 "/></clipPath></defs><g id="5b3b8c8fd7"><path style=" stroke:none;fill-rule:nonzero;fill:#000000;fill-opacity:1;" d="M 21.742188 23.753906 L 21.132812 23.484375 C 20.996094 23.417969 20.828125 23.453125 20.691406 23.550781 C 20.050781 24.128906 19.476562 24.398438 19.035156 24.53125 C 18.632812 24.667969 18.257812 24.296875 18.359375 23.890625 L 20.894531 14.460938 C 20.929688 14.292969 20.929688 14.089844 20.828125 13.953125 C 20.691406 13.75 20.492188 13.617188 20.253906 13.617188 C 20.21875 13.617188 20.1875 13.617188 20.152344 13.617188 L 15.117188 14.460938 C 14.777344 14.527344 14.542969 14.832031 14.574219 15.203125 L 14.644531 15.746094 C 14.675781 16.050781 14.949219 16.285156 15.285156 16.285156 L 16.164062 16.285156 L 13.832031 24.804688 C 13.832031 24.804688 13.832031 24.804688 13.832031 24.835938 C 13.765625 25.207031 13.730469 25.785156 14.035156 26.359375 C 14.609375 27.4375 15.691406 27.640625 16.804688 27.640625 C 19.613281 27.640625 21.335938 25.445312 21.910156 24.261719 C 22.046875 24.09375 21.945312 23.855469 21.742188 23.753906 Z M 21.742188 23.753906 "/><path style=" stroke:none;fill-rule:nonzero;fill:#000000;fill-opacity:1;" d="M 19.410156 12.433594 C 20.863281 12.433594 22.046875 11.25 22.046875 9.796875 C 22.046875 8.34375 20.863281 7.160156 19.410156 7.160156 C 17.957031 7.160156 16.773438 8.34375 16.773438 9.796875 C 16.773438 11.25 17.957031 12.433594 19.410156 12.433594 Z M 19.410156 12.433594 "/><g clip-rule="nonzero" clip-path="url(#7bb33f18ae)"><path style=" stroke:none;fill-rule:nonzero;fill:#000000;fill-opacity:1;" d="M 17.855469 1.3125 C 9 1.3125 1.800781 8.511719 1.800781 17.367188 C 1.800781 26.222656 9 33.421875 17.855469 33.421875 C 26.710938 33.421875 33.90625 26.222656 33.90625 17.367188 C 33.90625 8.511719 26.710938 1.3125 17.855469 1.3125 Z M 17.855469 31.023438 C 10.316406 31.023438 4.199219 24.90625 4.199219 17.367188 C 4.199219 9.832031 10.316406 3.714844 17.855469 3.714844 C 25.390625 3.714844 31.507812 9.832031 31.507812 17.367188 C 31.507812 24.90625 25.390625 31.023438 17.855469 31.023438 Z M 17.855469 31.023438 "/></g></g></svg>