<svg xmlns="http://www.w3.org/2000/svg" xmlns:xlink="http://www.w3.org/1999/xlink" width="40" zoomAndPan="magnify" viewBox="0 0 30 30.000001" height="40" preserveAspectRatio="xMidYMid meet" version="1.2"><defs><clipPath id="0c6095184d"><path d="M 7 2.953125 L 23 2.953125 L 23 22 L 7 22 Z M 7 2.953125 "/></clipPath><clipPath id="dc8f5e8d71"><path d="M 5.164062 19 L 24.761719 19 L 24.761719 26.179688 L 5.164062 26.179688 Z M 5.164062 19 "/></clipPath></defs><g id="3d139b0a7b"><g clip-rule="nonzero" clip-path="url(#0c6095184d)"><path style=" stroke:none;fill-rule:nonzero;fill:#211d1d;fill-opacity:1;" d="M 14.960938 4.546875 C 18.097656 4.546875 20.648438 7.113281 20.648438 10.265625 C 20.648438 11.546875 20.257812 12.769531 19.515625 13.808594 L 14.964844 20.195312 L 10.410156 13.8125 C 9.667969 12.769531 9.277344 11.546875 9.277344 10.265625 C 9.277344 7.113281 11.828125 4.546875 14.960938 4.546875 Z M 13.703125 21.15625 C 13.992188 21.5625 14.464844 21.808594 14.960938 21.808594 C 15.460938 21.808594 15.933594 21.5625 16.222656 21.15625 L 20.800781 14.738281 C 21.734375 13.425781 22.230469 11.878906 22.230469 10.265625 C 22.230469 6.234375 18.96875 2.957031 14.960938 2.957031 C 10.957031 2.957031 7.695312 6.234375 7.695312 10.265625 C 7.695312 11.878906 8.191406 13.425781 9.125 14.738281 L 13.703125 21.15625 "/></g><path style=" stroke:none;fill-rule:nonzero;fill:#211d1d;fill-opacity:1;" d="M 14.960938 8.78125 C 15.613281 8.78125 16.140625 9.316406 16.140625 9.96875 C 16.140625 10.625 15.613281 11.15625 14.960938 11.15625 C 14.3125 11.15625 13.78125 10.625 13.78125 9.96875 C 13.78125 9.316406 14.3125 8.78125 14.960938 8.78125 Z M 14.960938 12.746094 C 16.484375 12.746094 17.722656 11.5 17.722656 9.96875 C 17.722656 8.4375 16.484375 7.191406 14.960938 7.191406 C 13.441406 7.191406 12.203125 8.4375 12.203125 9.96875 C 12.203125 11.5 13.441406 12.746094 14.960938 12.746094 "/><g clip-rule="nonzero" clip-path="url(#dc8f5e8d71)"><path style=" stroke:none;fill-rule:nonzero;fill:#211d1d;fill-opacity:1;" d="M 22.429688 20.015625 C 21.242188 19.519531 19.867188 19.246094 18.921875 19.101562 L 18.699219 19.066406 L 18.460938 20.640625 L 18.6875 20.671875 C 22.109375 21.195312 23.171875 22.191406 23.171875 22.496094 C 23.171875 23.121094 20.378906 24.589844 14.964844 24.589844 C 9.546875 24.589844 6.753906 23.121094 6.753906 22.496094 C 6.753906 22.191406 7.816406 21.195312 11.238281 20.671875 L 11.460938 20.640625 L 11.226562 19.066406 L 11.003906 19.101562 C 10.058594 19.246094 8.683594 19.519531 7.496094 20.015625 C 5.953125 20.65625 5.171875 21.492188 5.171875 22.496094 C 5.171875 23.65625 6.265625 24.625 8.332031 25.292969 C 10.078125 25.855469 12.496094 26.179688 14.964844 26.179688 C 17.433594 26.179688 19.851562 25.855469 21.597656 25.292969 C 23.660156 24.625 24.753906 23.65625 24.753906 22.496094 C 24.753906 21.492188 23.972656 20.65625 22.429688 20.015625 "/></g></g></svg>