<svg xmlns="http://www.w3.org/2000/svg" xmlns:xlink="http://www.w3.org/1999/xlink" width="48" zoomAndPan="magnify" viewBox="0 0 36 36.000001" height="48" preserveAspectRatio="xMidYMid meet" version="1.2"><defs><clipPath id="c7c1fb70c6"><path d="M 11 10 L 33.179688 10 L 33.179688 25 L 11 25 Z M 11 10 "/></clipPath><clipPath id="f83b802007"><path d="M 3.988281 2.882812 L 22 2.882812 L 22 32.070312 L 3.988281 32.070312 Z M 3.988281 2.882812 "/></clipPath></defs><g id="da202dcce7"><g clip-rule="nonzero" clip-path="url(#c7c1fb70c6)"><path style=" stroke:none;fill-rule:evenodd;fill:#000000;fill-opacity:1;" d="M 29.769531 16.507812 L 12.71875 16.507812 C 12.179688 16.507812 11.746094 16.941406 11.746094 17.476562 C 11.746094 18.011719 12.179688 18.445312 12.71875 18.445312 L 29.769531 18.445312 L 25.609375 22.609375 C 25.230469 22.988281 25.230469 23.601562 25.609375 23.980469 C 25.984375 24.359375 26.601562 24.359375 26.980469 23.980469 L 32.796875 18.164062 C 33.175781 17.785156 33.175781 17.167969 32.796875 16.792969 L 26.980469 10.972656 C 26.601562 10.59375 25.984375 10.59375 25.609375 10.972656 C 25.230469 11.351562 25.230469 11.964844 25.609375 12.34375 Z M 29.769531 16.507812 "/></g><g clip-rule="nonzero" clip-path="url(#f83b802007)"><path style=" stroke:none;fill-rule:evenodd;fill:#000000;fill-opacity:1;" d="M 21.445312 9.71875 L 21.445312 5.839844 C 21.445312 4.234375 20.140625 2.929688 18.535156 2.929688 L 6.898438 2.929688 C 5.292969 2.929688 3.988281 4.234375 3.988281 5.839844 L 3.988281 29.113281 C 3.988281 30.722656 5.292969 32.023438 6.898438 32.023438 L 18.535156 32.023438 C 20.140625 32.023438 21.445312 30.722656 21.445312 29.113281 C 21.445312 29.113281 21.445312 25.234375 21.445312 25.234375 C 21.445312 24.699219 21.011719 24.265625 20.476562 24.265625 C 19.941406 24.265625 19.503906 24.699219 19.503906 25.234375 L 19.503906 29.113281 C 19.503906 29.648438 19.070312 30.082031 18.535156 30.082031 C 18.535156 30.082031 6.898438 30.082031 6.898438 30.082031 C 6.363281 30.082031 5.929688 29.648438 5.929688 29.113281 L 5.929688 5.839844 C 5.929688 5.304688 6.363281 4.871094 6.898438 4.871094 C 6.898438 4.871094 18.535156 4.871094 18.535156 4.871094 C 19.070312 4.871094 19.503906 5.304688 19.503906 5.839844 L 19.503906 9.71875 C 19.503906 10.253906 19.941406 10.6875 20.476562 10.6875 C 21.011719 10.6875 21.445312 10.253906 21.445312 9.71875 Z M 21.445312 9.71875 "/></g></g></svg>