<svg xmlns="http://www.w3.org/2000/svg" xmlns:xlink="http://www.w3.org/1999/xlink" width="48" zoomAndPan="magnify" viewBox="0 0 36 36.000001" height="48" preserveAspectRatio="xMidYMid meet" version="1.2"><defs><clipPath id="bceccbddf6"><path d="M 0.488281 3.792969 L 34.785156 3.792969 L 34.785156 31.523438 L 0.488281 31.523438 Z M 0.488281 3.792969 "/></clipPath></defs><g id="f825703156"><g clip-rule="nonzero" clip-path="url(#bceccbddf6)"><path style=" stroke:none;fill-rule:nonzero;fill:#000000;fill-opacity:1;" d="M 17.464844 3.792969 C 14.09375 3.792969 10.980469 5.054688 8.613281 7.070312 C 8.492188 7.167969 8.398438 7.285156 8.328125 7.421875 C 8.257812 7.558594 8.214844 7.703125 8.203125 7.859375 C 8.1875 8.011719 8.203125 8.160156 8.25 8.308594 C 8.296875 8.457031 8.367188 8.589844 8.464844 8.707031 C 8.5625 8.824219 8.679688 8.917969 8.816406 8.988281 C 8.953125 9.058594 9.097656 9.101562 9.25 9.113281 C 9.402344 9.125 9.550781 9.109375 9.695312 9.058594 C 9.839844 9.011719 9.96875 8.9375 10.085938 8.835938 C 12.058594 7.15625 14.660156 6.105469 17.464844 6.105469 C 23.4375 6.105469 28.273438 10.625 28.839844 16.503906 L 25.464844 16.503906 L 30.039062 23.4375 L 34.609375 16.503906 L 31.121094 16.503906 C 30.542969 9.378906 24.664062 3.792969 17.464844 3.792969 Z M 5.234375 10.726562 L 0.660156 17.660156 L 3.746094 17.660156 C 3.746094 25.324219 9.878906 31.523438 17.464844 31.523438 C 20.832031 31.523438 23.945312 30.265625 26.316406 28.246094 C 26.433594 28.148438 26.527344 28.03125 26.597656 27.894531 C 26.667969 27.757812 26.710938 27.613281 26.726562 27.460938 C 26.738281 27.304688 26.722656 27.15625 26.675781 27.007812 C 26.632812 26.863281 26.558594 26.730469 26.460938 26.613281 C 26.363281 26.492188 26.246094 26.398438 26.109375 26.328125 C 25.976562 26.257812 25.832031 26.21875 25.679688 26.203125 C 25.527344 26.191406 25.378906 26.210938 25.234375 26.257812 C 25.089844 26.304688 24.957031 26.378906 24.84375 26.480469 C 22.867188 28.160156 20.269531 29.210938 17.464844 29.210938 C 11.101562 29.210938 6.03125 24.089844 6.03125 17.660156 L 9.804688 17.660156 Z M 5.234375 10.726562 "/></g></g></svg>