<svg xmlns="http://www.w3.org/2000/svg" xmlns:xlink="http://www.w3.org/1999/xlink" width="48" zoomAndPan="magnify" viewBox="0 0 36 36.000001" height="48" preserveAspectRatio="xMidYMid meet" version="1.2"><g id="066db9860e"><path style=" stroke:none;fill-rule:nonzero;fill:#000000;fill-opacity:1;" d="M 31.140625 27.085938 L 21.558594 19.132812 C 21.792969 18.820312 22.003906 18.496094 22.195312 18.15625 C 22.386719 17.816406 22.554688 17.46875 22.703125 17.105469 C 22.847656 16.746094 22.972656 16.378906 23.074219 16.003906 C 23.175781 15.628906 23.253906 15.246094 23.308594 14.863281 C 23.363281 14.476562 23.390625 14.089844 23.398438 13.699219 C 23.402344 13.3125 23.382812 12.925781 23.339844 12.539062 C 23.296875 12.152344 23.230469 11.769531 23.140625 11.390625 C 23.050781 11.011719 22.9375 10.640625 22.800781 10.277344 C 22.660156 9.914062 22.503906 9.558594 22.320312 9.214844 C 22.140625 8.871094 21.9375 8.539062 21.714844 8.21875 C 21.492188 7.902344 21.25 7.597656 20.988281 7.308594 C 20.730469 7.019531 20.453125 6.746094 20.15625 6.492188 C 19.863281 6.238281 19.554688 6.003906 19.230469 5.789062 C 18.90625 5.574219 18.570312 5.378906 18.222656 5.207031 C 17.871094 5.03125 17.515625 4.882812 17.148438 4.753906 C 16.78125 4.625 16.40625 4.519531 16.027344 4.4375 C 15.648438 4.355469 15.261719 4.296875 14.875 4.261719 C 14.488281 4.226562 14.101562 4.21875 13.710938 4.230469 C 13.320312 4.246094 12.9375 4.285156 12.550781 4.347656 C 12.167969 4.410156 11.789062 4.496094 11.417969 4.605469 C 11.042969 4.714844 10.679688 4.847656 10.320312 5.003906 C 9.964844 5.160156 9.621094 5.335938 9.285156 5.535156 C 8.949219 5.734375 8.628906 5.953125 8.320312 6.191406 C 8.015625 6.429688 7.722656 6.6875 7.449219 6.960938 C 7.171875 7.238281 6.917969 7.527344 6.679688 7.835938 C 6.4375 8.144531 6.21875 8.464844 6.023438 8.796875 C 5.824219 9.132812 5.644531 9.476562 5.492188 9.835938 C 5.335938 10.191406 5.203125 10.554688 5.09375 10.929688 C 4.984375 11.304688 4.898438 11.679688 4.835938 12.066406 C 4.769531 12.449219 4.734375 12.835938 4.71875 13.222656 C 4.703125 13.613281 4.714844 14 4.75 14.390625 C 4.78125 14.777344 4.839844 15.160156 4.921875 15.539062 C 5.003906 15.921875 5.109375 16.292969 5.238281 16.660156 C 5.367188 17.027344 5.519531 17.386719 5.691406 17.734375 C 5.867188 18.082031 6.058594 18.417969 6.277344 18.742188 C 6.492188 19.066406 6.726562 19.375 6.980469 19.671875 C 7.234375 19.964844 7.503906 20.242188 7.792969 20.503906 C 8.082031 20.765625 8.386719 21.007812 8.707031 21.230469 C 9.023438 21.453125 9.355469 21.652344 9.699219 21.835938 C 10.042969 22.015625 10.398438 22.175781 10.761719 22.3125 C 11.128906 22.449219 11.5 22.5625 11.875 22.652344 C 12.253906 22.746094 12.636719 22.8125 13.023438 22.855469 C 13.410156 22.898438 13.796875 22.917969 14.1875 22.910156 C 14.578125 22.90625 14.964844 22.875 15.347656 22.820312 C 15.734375 22.769531 16.113281 22.691406 16.492188 22.589844 C 16.867188 22.488281 17.234375 22.363281 17.59375 22.214844 C 17.953125 22.066406 18.304688 21.898438 18.640625 21.707031 C 18.980469 21.515625 19.308594 21.304688 19.621094 21.074219 L 27.574219 30.652344 C 28.535156 31.753906 32.242188 28.050781 31.140625 27.085938 Z M 8.65625 18.96875 C 8.300781 18.613281 7.984375 18.226562 7.707031 17.808594 C 7.429688 17.394531 7.195312 16.953125 7.003906 16.492188 C 6.808594 16.027344 6.664062 15.550781 6.566406 15.058594 C 6.46875 14.566406 6.421875 14.070312 6.421875 13.570312 C 6.421875 13.066406 6.46875 12.570312 6.566406 12.078125 C 6.664062 11.585938 6.808594 11.109375 7.003906 10.648438 C 7.195312 10.183594 7.429688 9.746094 7.707031 9.328125 C 7.984375 8.910156 8.300781 8.523438 8.65625 8.171875 C 9.011719 7.816406 9.398438 7.5 9.8125 7.222656 C 10.230469 6.941406 10.671875 6.707031 11.132812 6.515625 C 11.597656 6.324219 12.074219 6.179688 12.566406 6.082031 C 13.058594 5.984375 13.554688 5.933594 14.054688 5.933594 C 14.558594 5.933594 15.054688 5.984375 15.542969 6.082031 C 16.035156 6.179688 16.515625 6.324219 16.976562 6.515625 C 17.441406 6.707031 17.878906 6.941406 18.296875 7.222656 C 18.714844 7.5 19.097656 7.816406 19.453125 8.171875 C 19.808594 8.523438 20.125 8.910156 20.402344 9.328125 C 20.683594 9.746094 20.917969 10.183594 21.109375 10.648438 C 21.300781 11.109375 21.445312 11.585938 21.542969 12.078125 C 21.640625 12.570312 21.691406 13.066406 21.691406 13.570312 C 21.691406 14.070312 21.640625 14.566406 21.542969 15.058594 C 21.445312 15.550781 21.300781 16.027344 21.109375 16.492188 C 20.917969 16.953125 20.683594 17.394531 20.402344 17.808594 C 20.125 18.226562 19.808594 18.613281 19.453125 18.96875 C 19.097656 19.320312 18.714844 19.636719 18.296875 19.914062 C 17.878906 20.195312 17.4375 20.429688 16.976562 20.621094 C 16.511719 20.8125 16.035156 20.957031 15.542969 21.054688 C 15.054688 21.152344 14.554688 21.199219 14.054688 21.199219 C 13.554688 21.199219 13.058594 21.152344 12.566406 21.054688 C 12.074219 20.957031 11.597656 20.8125 11.132812 20.621094 C 10.671875 20.429688 10.230469 20.195312 9.816406 19.914062 C 9.398438 19.636719 9.011719 19.320312 8.65625 18.96875 Z M 8.65625 18.96875 "/><path style=" stroke:none;fill-rule:nonzero;fill:#000000;fill-opacity:1;" d="M 17.390625 8.074219 C 16.894531 7.769531 16.367188 7.539062 15.804688 7.382812 C 15.257812 7.226562 14.695312 7.148438 14.125 7.140625 C 13.550781 7.136719 12.988281 7.203125 12.4375 7.347656 C 11.882812 7.492188 11.359375 7.707031 10.859375 7.992188 C 10.363281 8.277344 9.914062 8.621094 9.511719 9.023438 C 9.117188 9.414062 8.78125 9.851562 8.503906 10.332031 C 8.421875 10.476562 8.402344 10.625 8.445312 10.78125 C 8.488281 10.941406 8.578125 11.058594 8.722656 11.140625 C 8.863281 11.222656 9.011719 11.242188 9.171875 11.199219 C 9.328125 11.15625 9.449219 11.0625 9.53125 10.921875 C 9.753906 10.53125 10.027344 10.175781 10.347656 9.859375 C 11.019531 9.1875 11.816406 8.734375 12.734375 8.492188 C 13.652344 8.253906 14.570312 8.261719 15.484375 8.519531 C 15.941406 8.648438 16.371094 8.835938 16.773438 9.082031 C 16.914062 9.167969 17.0625 9.191406 17.21875 9.152344 C 17.378906 9.113281 17.5 9.023438 17.585938 8.886719 C 17.671875 8.746094 17.691406 8.597656 17.65625 8.4375 C 17.617188 8.28125 17.527344 8.15625 17.390625 8.074219 Z M 17.390625 8.074219 "/></g></svg>