<svg xmlns="http://www.w3.org/2000/svg" xmlns:xlink="http://www.w3.org/1999/xlink" width="48" zoomAndPan="magnify" viewBox="0 0 36 36.000001" height="48" preserveAspectRatio="xMidYMid meet" version="1.2"><defs><clipPath id="2a00ec45a5"><path d="M 4.695312 2.085938 L 30.964844 2.085938 L 30.964844 32.734375 L 4.695312 32.734375 Z M 4.695312 2.085938 "/></clipPath></defs><g id="99066554f1"><g clip-rule="nonzero" clip-path="url(#2a00ec45a5)"><path style=" stroke:none;fill-rule:nonzero;fill:#000000;fill-opacity:1;" d="M 30.890625 29.933594 L 29.085938 10.183594 C 29.050781 9.800781 28.730469 9.507812 28.347656 9.507812 L 23.1875 9.507812 L 23.1875 7.476562 C 23.1875 4.503906 20.785156 2.085938 17.832031 2.085938 C 14.878906 2.085938 12.476562 4.503906 12.476562 7.476562 L 12.476562 9.507812 L 7.316406 9.507812 C 6.933594 9.507812 6.613281 9.800781 6.578125 10.183594 L 4.777344 29.933594 C 4.707031 30.671875 4.933594 31.351562 5.433594 31.898438 C 5.929688 32.445312 6.578125 32.734375 7.316406 32.734375 L 28.347656 32.734375 C 29.085938 32.734375 29.738281 32.445312 30.234375 31.898438 C 30.730469 31.351562 30.957031 30.671875 30.890625 29.933594 Z M 13.957031 7.476562 C 13.957031 5.324219 15.695312 3.574219 17.832031 3.574219 C 19.96875 3.574219 21.707031 5.324219 21.707031 7.476562 L 21.707031 9.507812 L 13.957031 9.507812 Z M 29.140625 30.894531 C 28.925781 31.132812 28.667969 31.246094 28.347656 31.246094 L 7.316406 31.246094 C 7 31.246094 6.738281 31.132812 6.523438 30.894531 C 6.308594 30.660156 6.21875 30.386719 6.25 30.070312 L 7.992188 10.996094 L 12.476562 10.996094 L 12.476562 12.609375 C 12.476562 13.023438 12.808594 13.355469 13.21875 13.355469 C 13.625 13.355469 13.957031 13.023438 13.957031 12.609375 L 13.957031 10.996094 L 21.707031 10.996094 L 21.707031 12.609375 C 21.707031 13.023438 22.039062 13.355469 22.449219 13.355469 C 22.855469 13.355469 23.1875 13.023438 23.1875 12.609375 L 23.1875 10.996094 L 27.671875 10.996094 L 29.417969 30.070312 C 29.445312 30.390625 29.355469 30.660156 29.140625 30.894531 Z M 29.140625 30.894531 "/></g></g></svg>