<svg xmlns="http://www.w3.org/2000/svg" xmlns:xlink="http://www.w3.org/1999/xlink" width="48" zoomAndPan="magnify" viewBox="0 0 36 36.000001" height="48" preserveAspectRatio="xMidYMid meet" version="1.2"><defs><clipPath id="a28191180b"><path d="M 5.011719 2.519531 L 31.28125 2.519531 L 31.28125 32.441406 L 5.011719 32.441406 Z M 5.011719 2.519531 "/></clipPath></defs><g id="0e5b3f96e4"><g clip-rule="nonzero" clip-path="url(#a28191180b)"><path style=" stroke:none;fill-rule:nonzero;fill:#000000;fill-opacity:1;" d="M 29.140625 5.761719 L 24.769531 5.761719 L 24.769531 5.144531 C 24.769531 3.699219 23.582031 2.523438 22.117188 2.523438 L 14.144531 2.523438 C 12.679688 2.523438 11.488281 3.699219 11.488281 5.144531 L 11.488281 5.761719 L 7.121094 5.761719 C 5.976562 5.761719 5.042969 6.679688 5.042969 7.808594 L 5.042969 8.78125 C 5.042969 9.835938 5.859375 10.710938 6.902344 10.816406 L 9.042969 29.332031 C 9.246094 31.101562 10.757812 32.433594 12.5625 32.433594 L 23.699219 32.433594 C 25.503906 32.433594 27.015625 31.101562 27.21875 29.332031 L 29.359375 10.816406 C 30.402344 10.710938 31.21875 9.835938 31.21875 8.78125 L 31.21875 7.808594 C 31.21875 6.679688 30.285156 5.761719 29.140625 5.761719 Z M 12.839844 5.144531 C 12.839844 4.433594 13.421875 3.855469 14.144531 3.855469 L 22.117188 3.855469 C 22.839844 3.855469 23.425781 4.433594 23.425781 5.144531 L 23.425781 5.761719 L 12.839844 5.761719 Z M 25.882812 29.183594 C 25.753906 30.277344 24.816406 31.105469 23.699219 31.105469 L 12.5625 31.105469 C 11.445312 31.105469 10.507812 30.277344 10.378906 29.183594 L 8.261719 10.828125 L 28 10.828125 Z M 29.871094 8.78125 C 29.871094 9.175781 29.542969 9.5 29.140625 9.5 L 7.121094 9.5 C 6.71875 9.5 6.390625 9.175781 6.390625 8.78125 L 6.390625 7.808594 C 6.390625 7.414062 6.71875 7.089844 7.121094 7.089844 L 29.140625 7.089844 C 29.542969 7.089844 29.871094 7.414062 29.871094 7.808594 Z M 29.871094 8.78125 "/></g><path style=" stroke:none;fill-rule:nonzero;fill:#000000;fill-opacity:1;" d="M 18.128906 27.507812 C 18.503906 27.507812 18.804688 27.207031 18.804688 26.839844 L 18.804688 15.09375 C 18.804688 14.726562 18.503906 14.429688 18.128906 14.429688 C 17.757812 14.429688 17.457031 14.726562 17.457031 15.09375 L 17.457031 26.839844 C 17.457031 27.207031 17.757812 27.507812 18.128906 27.507812 Z M 18.128906 27.507812 "/><path style=" stroke:none;fill-rule:nonzero;fill:#000000;fill-opacity:1;" d="M 22.160156 27.476562 C 22.179688 27.476562 22.203125 27.480469 22.222656 27.480469 C 22.566406 27.480469 22.859375 27.222656 22.894531 26.878906 L 24.046875 15.183594 C 24.085938 14.820312 23.8125 14.492188 23.441406 14.457031 C 23.066406 14.421875 22.742188 14.691406 22.707031 15.054688 L 21.554688 26.75 C 21.515625 27.113281 21.789062 27.441406 22.15625 27.476562 Z M 22.160156 27.476562 "/><path style=" stroke:none;fill-rule:nonzero;fill:#000000;fill-opacity:1;" d="M 14.039062 27.480469 C 14.058594 27.480469 14.082031 27.476562 14.101562 27.476562 C 14.472656 27.441406 14.746094 27.113281 14.707031 26.75 L 13.554688 15.054688 C 13.519531 14.691406 13.195312 14.421875 12.816406 14.457031 C 12.449219 14.492188 12.175781 14.820312 12.214844 15.183594 L 13.367188 26.878906 C 13.402344 27.222656 13.695312 27.480469 14.035156 27.480469 Z M 14.039062 27.480469 "/></g></svg>